<?xml version="1.0" standalone="no"?>
<!DOCTYPE svg PUBLIC "-//W3C//DTD SVG 20010904//EN"
 "http://www.w3.org/TR/2001/REC-SVG-20010904/DTD/svg10.dtd">
<svg version="1.0" xmlns="http://www.w3.org/2000/svg"
 width="835.000000pt" height="835.000000pt" viewBox="0 0 835.000000 835.000000"
 preserveAspectRatio="xMidYMid meet">
<metadata>
Created by potrace 1.14, written by Peter Selinger 2001-2017
</metadata>
<g transform="translate(0.000000,835.000000) scale(0.100000,-0.100000)"
fill="#000000" stroke="none">
<path d="M3839 8343 c-3 -8 -29 -13 -76 -15 -39 -1 -70 -5 -68 -8 2 -4 -2 -7
-10 -7 -8 0 -12 3 -10 7 2 4 -2 7 -10 7 -8 0 -12 -4 -9 -9 5 -7 -65 -13 -108
-9 -10 1 -18 -3 -18 -8 0 -6 -5 -11 -11 -11 -5 0 -7 6 -3 13 5 9 4 9 -6 0 -7
-6 -19 -9 -26 -6 -8 3 -14 1 -14 -5 0 -6 -18 -9 -40 -8 -30 2 -40 -1 -40 -13
0 -11 -3 -12 -12 -3 -8 8 -17 8 -31 1 -10 -6 -28 -9 -38 -6 -10 3 -17 1 -13
-4 5 -9 -16 -13 -43 -10 -7 1 -13 -4 -13 -11 0 -9 -3 -9 -10 2 -6 9 -10 11
-10 3 0 -7 -7 -10 -15 -7 -8 4 -15 2 -15 -4 0 -5 -6 -10 -12 -9 -43 1 -78 -4
-74 -12 3 -4 -4 -8 -17 -7 -13 1 -21 -4 -19 -12 2 -9 -2 -11 -10 -6 -20 13
-39 13 -32 2 4 -6 1 -8 -7 -6 -8 3 -29 -1 -48 -8 -19 -8 -36 -12 -39 -9 -3 3
-14 -3 -25 -12 -15 -13 -18 -14 -12 -3 6 12 5 13 -6 3 -7 -7 -21 -13 -30 -13
-9 0 -29 -7 -45 -14 -15 -8 -32 -12 -37 -9 -6 3 -7 1 -3 -5 5 -8 -5 -12 -31
-12 -28 0 -34 -3 -23 -10 11 -7 7 -10 -17 -10 -18 0 -33 -5 -33 -11 0 -5 -4
-8 -9 -4 -5 3 -12 1 -16 -5 -4 -6 -11 -8 -16 -5 -5 4 -9 2 -9 -2 0 -5 -10 -10
-22 -10 -13 -1 -24 -7 -26 -12 -2 -6 -19 -13 -38 -17 -18 -3 -31 -10 -29 -15
3 -4 -3 -6 -14 -4 -11 2 -22 -3 -25 -11 -3 -9 -11 -12 -17 -9 -5 4 -17 -1 -24
-11 -8 -11 -15 -16 -15 -11 0 4 -17 -1 -39 -12 -21 -11 -42 -17 -46 -13 -5 4
-5 1 -1 -5 5 -9 0 -13 -14 -13 -14 0 -19 -4 -14 -12 5 -8 0 -7 -11 2 -11 9
-16 10 -11 3 4 -8 1 -13 -9 -13 -9 0 -13 -4 -10 -10 4 -6 -7 -10 -27 -10 -25
0 -29 -3 -18 -10 12 -8 10 -10 -8 -10 -13 0 -30 -7 -39 -15 -8 -8 -19 -13 -24
-10 -5 4 -9 -2 -9 -11 0 -10 -3 -14 -7 -11 -3 4 -17 0 -30 -8 -13 -9 -29 -13
-36 -8 -7 4 -5 -2 3 -12 8 -10 10 -16 4 -12 -6 3 -22 0 -37 -8 -14 -7 -29 -10
-33 -7 -4 4 -4 2 -1 -5 4 -6 -5 -15 -23 -22 -17 -5 -30 -15 -30 -22 0 -7 -3
-10 -6 -6 -4 3 -13 -1 -21 -9 -8 -8 -19 -12 -24 -8 -5 3 -8 0 -7 -8 2 -7 -3
-12 -9 -10 -7 1 -13 -2 -13 -8 0 -6 -6 -9 -12 -8 -7 2 -12 -3 -10 -9 1 -7 -7
-13 -18 -13 -11 0 -20 -7 -20 -16 0 -8 -5 -12 -11 -9 -5 4 -23 -7 -40 -24 -16
-17 -29 -26 -29 -19 0 6 -8 1 -19 -10 -10 -12 -21 -19 -25 -15 -3 3 -6 -1 -6
-11 0 -9 -4 -15 -8 -12 -5 3 -15 -4 -22 -15 -8 -10 -19 -19 -25 -19 -6 0 -27
-13 -45 -30 -18 -16 -38 -30 -42 -30 -5 0 -6 -4 -3 -10 3 -5 -1 -10 -9 -10 -8
0 -20 -9 -26 -20 -6 -11 -15 -18 -21 -15 -5 4 -9 -1 -9 -9 0 -9 -4 -16 -10
-16 -5 0 -20 -11 -34 -25 -14 -14 -28 -25 -31 -25 -3 0 -39 -34 -81 -75 -42
-41 -80 -72 -85 -69 -5 3 -9 2 -8 -3 4 -21 -2 -33 -18 -33 -9 0 -14 -3 -10 -6
8 -8 -18 -34 -33 -34 -6 0 -9 -4 -5 -10 3 -5 -6 -17 -20 -26 -13 -9 -22 -21
-18 -27 4 -6 0 -8 -10 -4 -11 4 -17 1 -17 -8 0 -8 -5 -15 -12 -15 -6 0 -8 -3
-5 -7 4 -3 -9 -21 -29 -39 -24 -20 -34 -36 -29 -44 5 -8 4 -11 -2 -7 -6 4 -21
-8 -34 -25 -13 -17 -35 -42 -49 -56 -14 -13 -18 -21 -10 -17 8 4 3 -5 -13 -21
-41 -43 -67 -76 -67 -86 0 -4 -8 -8 -17 -8 -14 0 -15 -2 -5 -9 11 -7 11 -9 -2
-14 -9 -4 -16 -13 -16 -22 0 -8 -4 -15 -10 -15 -5 0 -10 -7 -10 -16 0 -8 -5
-12 -10 -9 -6 3 -10 -3 -10 -15 0 -12 -4 -18 -10 -15 -5 3 -10 -1 -10 -9 0 -9
-4 -16 -10 -16 -5 0 -10 -7 -10 -15 0 -8 -4 -15 -10 -15 -5 0 -10 -7 -10 -15
0 -8 -4 -15 -10 -15 -5 0 -10 -9 -10 -21 0 -11 -4 -17 -10 -14 -5 3 -10 -1
-10 -10 0 -9 -4 -13 -10 -10 -5 3 -7 0 -4 -8 3 -8 -3 -17 -13 -21 -15 -6 -15
-8 -3 -16 13 -8 12 -10 -3 -10 -10 0 -15 -4 -12 -10 3 -5 1 -10 -4 -10 -6 0
-11 -7 -11 -15 0 -8 -5 -15 -12 -15 -6 0 -9 -3 -5 -6 3 -4 -1 -13 -9 -22 -13
-12 -13 -16 -2 -23 10 -7 9 -9 -3 -9 -9 0 -19 -8 -22 -17 -8 -24 -40 -77 -49
-81 -5 -2 -8 -12 -8 -23 0 -10 -3 -19 -7 -19 -11 0 -33 -50 -33 -73 0 -10 -4
-15 -10 -12 -9 6 -15 -8 -11 -29 1 -5 -5 -6 -14 -2 -13 4 -14 2 -5 -14 8 -14
8 -20 0 -20 -6 0 -9 -4 -6 -9 4 -5 3 -11 -1 -13 -11 -4 -43 -67 -43 -84 0 -8
-4 -14 -10 -14 -5 0 -10 -11 -10 -25 0 -14 -5 -25 -11 -25 -5 0 -8 -4 -4 -9 3
-5 0 -15 -7 -23 -7 -7 -15 -22 -16 -33 -2 -11 -8 -24 -13 -29 -5 -6 -9 -24 -9
-40 0 -24 -3 -27 -10 -16 -7 11 -10 5 -10 -22 0 -21 -4 -38 -10 -38 -5 0 -10
-12 -10 -26 0 -15 -4 -23 -10 -19 -6 4 -10 3 -9 -2 5 -28 -2 -73 -11 -68 -6 4
-10 -7 -10 -24 0 -18 -5 -31 -12 -31 -10 0 -9 -3 1 -9 10 -7 10 -10 1 -13 -7
-2 -12 -16 -12 -31 0 -15 -5 -27 -10 -27 -5 0 -6 -4 -3 -10 3 -5 2 -10 -3 -10
-5 0 -8 -11 -7 -25 2 -14 -1 -25 -7 -25 -6 0 -4 -7 3 -17 10 -11 10 -14 2 -9
-12 6 -18 -11 -14 -36 0 -5 -3 -8 -7 -8 -5 0 -8 -13 -7 -30 1 -16 -2 -30 -7
-30 -5 0 -7 -4 -3 -9 3 -5 0 -13 -6 -17 -8 -4 -7 -9 2 -15 12 -8 11 -11 -1
-22 -9 -7 -15 -27 -15 -49 1 -21 -3 -34 -9 -31 -5 4 -7 -1 -3 -10 3 -10 2 -17
-3 -17 -6 0 -10 -5 -10 -11 0 -5 5 -7 11 -3 8 4 8 0 0 -15 -7 -12 -10 -25 -7
-30 3 -4 -1 -17 -8 -27 -10 -13 -11 -23 -4 -31 7 -9 7 -13 -1 -13 -6 0 -11
-17 -11 -38 0 -21 -6 -44 -12 -51 -10 -11 -10 -13 0 -7 7 4 12 1 12 -8 0 -9
-6 -16 -12 -16 -9 0 -8 -4 2 -10 12 -8 13 -13 2 -30 -15 -25 -15 -33 1 -24 9
6 9 4 0 -7 -7 -7 -13 -38 -13 -69 0 -31 -5 -61 -12 -68 -9 -9 -9 -12 1 -12 11
0 11 -3 0 -17 -8 -9 -9 -14 -3 -10 6 3 11 0 11 -8 0 -8 -4 -12 -9 -9 -13 8 -6
-29 7 -38 6 -5 5 -8 -4 -8 -11 0 -11 -3 0 -17 8 -9 9 -14 3 -10 -7 4 -11 -45
-13 -164 -1 -131 1 -169 10 -163 8 5 9 3 3 -7 -13 -22 -14 -73 -1 -81 9 -6 9
-8 0 -8 -7 0 -13 -5 -13 -11 0 -5 4 -8 9 -5 5 4 8 -2 6 -11 -2 -10 -4 -18 -5
-18 -1 0 -3 -8 -5 -18 -2 -9 0 -15 4 -12 5 2 9 -21 10 -53 3 -61 8 -117 11
-117 1 0 3 -18 4 -40 0 -22 4 -44 7 -50 3 -5 5 -25 3 -43 -2 -22 1 -30 9 -25
7 4 5 -2 -3 -12 -10 -13 -11 -16 -2 -11 9 5 13 3 11 -5 -5 -39 2 -70 14 -63 9
6 9 4 2 -7 -13 -18 -12 -38 2 -64 6 -11 10 -37 9 -57 0 -20 1 -36 4 -36 18 1
21 -4 10 -17 -10 -11 -10 -15 0 -15 6 0 10 -6 7 -12 -2 -7 3 -19 12 -26 9 -8
10 -11 4 -7 -8 4 -13 0 -13 -9 0 -9 5 -16 11 -16 6 0 9 -6 6 -14 -3 -8 -1 -17
6 -20 9 -3 9 -5 -1 -5 -9 -1 -8 -9 5 -28 14 -21 15 -25 3 -18 -13 8 -13 7 -1
-8 7 -9 11 -26 8 -37 -3 -10 0 -18 5 -17 6 1 13 -14 15 -33 3 -19 9 -38 15
-41 6 -4 8 -14 5 -23 -3 -8 0 -22 8 -30 8 -8 15 -26 15 -40 0 -14 4 -26 8 -26
4 0 9 -12 10 -27 1 -16 7 -30 12 -31 6 -2 10 -15 10 -28 0 -13 5 -24 10 -24 6
0 10 -15 10 -34 0 -19 4 -38 10 -41 6 -4 7 1 4 12 -4 13 -3 14 4 5 5 -8 8 -24
6 -38 -1 -13 1 -24 4 -24 9 0 32 -50 32 -67 0 -7 5 -13 11 -13 5 0 7 -5 4 -10
-4 -6 -1 -17 5 -25 7 -8 9 -15 4 -15 -5 0 -3 -4 5 -9 8 -5 16 -17 17 -27 2 -9
9 -21 16 -25 10 -7 10 -9 0 -9 -10 0 -10 -3 0 -14 7 -8 16 -12 19 -10 4 2 6
-4 6 -14 0 -35 3 -43 15 -36 6 4 9 3 5 -2 -6 -10 27 -87 34 -80 3 3 11 -14 17
-37 7 -23 22 -53 33 -67 12 -14 17 -19 13 -11 -4 9 -3 12 3 8 6 -4 9 -18 8
-31 -2 -16 1 -23 9 -20 7 3 12 -5 13 -18 1 -13 7 -24 13 -26 5 -2 10 -10 10
-18 0 -8 5 -14 11 -14 5 0 7 -4 4 -10 -3 -5 -1 -10 6 -10 7 0 10 -3 6 -6 -3
-3 6 -18 20 -31 19 -20 22 -28 11 -34 -11 -7 -11 -9 0 -9 18 0 42 -25 42 -44
0 -9 5 -16 10 -16 6 0 10 -7 10 -16 0 -8 5 -12 10 -9 6 3 10 -3 10 -14 0 -12
5 -21 10 -21 6 0 10 -7 10 -16 0 -8 5 -12 10 -9 6 3 10 -3 10 -15 0 -12 5 -18
10 -15 6 3 10 0 10 -8 0 -7 9 -23 20 -35 12 -12 17 -22 13 -23 -4 0 3 -5 16
-10 15 -6 21 -14 17 -24 -4 -10 3 -20 19 -27 13 -6 22 -14 20 -18 -3 -4 4 -15
15 -25 11 -10 17 -22 13 -28 -3 -6 -1 -7 5 -3 7 4 12 3 12 -2 0 -5 15 -26 33
-45 17 -20 40 -47 51 -61 10 -14 23 -23 28 -20 4 3 7 2 6 -3 -4 -15 22 -53 37
-53 8 0 14 -6 13 -12 -2 -7 3 -12 10 -10 6 1 12 -8 12 -20 0 -12 3 -19 6 -15
7 7 94 -79 94 -93 0 -6 4 -8 10 -5 5 3 10 -1 10 -10 0 -9 4 -14 8 -11 5 3 16
-6 26 -19 10 -14 23 -22 28 -19 4 3 7 0 6 -8 -2 -7 3 -12 11 -10 9 2 11 -3 7
-13 -3 -9 -2 -13 4 -10 6 3 10 1 10 -4 0 -6 7 -11 16 -11 11 0 14 -5 10 -16
-4 -11 -2 -15 8 -11 8 3 17 -1 20 -10 4 -9 13 -13 22 -9 8 3 12 2 9 -4 -3 -5
-1 -18 4 -27 6 -11 11 -13 11 -5 0 10 3 10 14 0 8 -7 12 -16 10 -20 -2 -3 9
-12 25 -19 16 -7 27 -17 25 -21 -3 -4 2 -8 11 -8 9 0 13 -5 10 -10 -4 -6 -3
-10 2 -9 20 3 34 -2 28 -11 -3 -6 1 -10 9 -10 9 0 16 -4 16 -10 0 -5 7 -10 15
-10 8 0 15 -7 15 -15 0 -8 3 -14 8 -14 20 3 32 -3 32 -17 0 -8 5 -12 10 -9 6
3 10 -2 10 -12 0 -15 2 -16 10 -3 6 9 10 10 10 3 0 -6 9 -15 20 -18 11 -3 20
-13 20 -21 0 -8 5 -12 10 -9 14 9 42 -14 33 -28 -3 -6 -1 -7 5 -3 6 4 20 -2
31 -13 11 -11 22 -17 25 -13 3 3 6 0 6 -6 0 -7 3 -11 7 -11 20 3 34 -2 29 -10
-7 -11 22 -23 36 -14 6 3 8 1 4 -5 -3 -6 -2 -13 4 -17 6 -4 7 -11 4 -17 -4 -7
-2 -8 5 -4 6 4 9 13 5 19 -3 7 1 4 10 -7 8 -10 20 -15 26 -11 6 4 9 1 8 -7 -2
-7 5 -12 15 -12 9 1 17 -4 17 -12 0 -8 9 -14 20 -14 11 0 20 -4 20 -10 0 -5 9
-10 21 -10 11 0 17 -4 14 -10 -4 -6 5 -10 19 -10 16 0 26 -6 26 -15 0 -9 6
-12 17 -8 11 4 14 3 9 -5 -5 -8 0 -12 13 -12 12 0 21 -4 21 -10 0 -5 12 -10
28 -10 21 0 24 -2 12 -10 -12 -8 -9 -10 13 -10 16 0 35 -7 44 -15 8 -8 19 -12
25 -9 6 4 8 2 5 -3 -8 -12 20 -26 34 -17 5 3 9 0 9 -5 0 -6 7 -11 16 -11 8 0
13 -4 10 -8 -4 -7 9 -11 51 -14 7 -1 10 -5 7 -10 -4 -7 9 -10 32 -7 3 0 11 -7
18 -17 7 -9 18 -14 24 -10 7 4 12 2 12 -3 0 -6 8 -11 18 -11 10 0 22 -4 28
-10 8 -8 38 -17 69 -19 6 -1 3 -6 -5 -11 -8 -5 -10 -10 -5 -10 6 0 16 5 23 10
6 6 10 7 7 3 -6 -8 66 -43 77 -37 3 2 9 0 13 -6 3 -5 16 -10 29 -10 12 0 26
-4 31 -9 6 -5 21 -11 35 -13 14 -1 31 -9 38 -16 8 -7 18 -10 23 -7 5 4 9 0 9
-7 0 -8 3 -9 8 -3 4 6 13 11 21 13 12 3 12 1 1 -13 -12 -14 -10 -15 14 -6 17
7 26 7 26 1 0 -6 9 -10 19 -10 11 0 22 -4 25 -9 3 -5 16 -7 28 -3 14 3 19 1
14 -6 -5 -8 -1 -10 10 -5 10 4 15 2 11 -3 -3 -5 3 -10 13 -10 10 0 16 4 13 9
-3 5 9 1 26 -7 17 -9 31 -14 31 -10 0 4 8 0 17 -7 15 -12 16 -12 8 1 -8 13 -6
13 8 2 9 -8 21 -11 27 -7 5 3 10 2 10 -3 0 -6 9 -8 20 -5 11 3 20 1 20 -5 0
-5 8 -9 18 -9 48 0 63 -4 56 -14 -5 -8 -1 -8 13 0 11 6 23 7 27 4 4 -4 19 -9
34 -11 15 -2 31 -7 36 -12 5 -5 17 -5 29 1 13 8 17 8 13 1 -4 -6 5 -10 21 -10
57 1 74 -2 68 -13 -4 -6 3 -5 14 3 18 11 23 11 31 -2 9 -13 10 -13 10 0 0 13
1 13 10 0 8 -12 11 -13 19 -1 6 9 10 10 13 1 2 -7 26 -11 61 -11 41 0 55 -4
51 -12 -5 -8 -2 -8 7 1 16 14 49 16 49 2 0 -5 5 -10 11 -10 5 0 8 4 5 8 -3 5
5 7 17 6 12 -1 22 -3 22 -4 0 -9 61 -8 73 2 9 7 13 8 9 2 -5 -8 51 -11 199
-11 134 0 201 3 192 9 -10 7 -9 8 5 4 9 -3 25 -9 35 -12 14 -5 15 -4 2 5 -12
9 -11 11 8 11 12 0 22 -4 22 -10 0 -5 5 -10 11 -10 5 0 7 5 4 10 -4 6 23 10
75 10 62 0 79 3 74 12 -5 8 0 7 11 -2 11 -9 16 -10 11 -2 -4 6 -2 12 3 12 6 0
11 -6 11 -12 0 -10 2 -10 8 -1 5 8 38 14 84 16 52 2 84 9 103 21 15 10 24 13
21 7 -4 -6 0 -11 8 -11 9 0 16 5 16 11 0 8 6 7 17 -2 11 -10 14 -10 9 -1 -5 9
4 12 34 12 23 0 39 4 36 8 -3 5 1 9 9 9 8 0 12 -3 10 -7 -2 -4 2 -7 9 -7 8 0
12 5 10 11 -2 6 8 11 23 12 16 0 37 4 47 9 15 7 18 5 12 -6 -4 -8 0 -5 8 5 12
15 16 16 16 5 0 -11 2 -11 9 -1 4 7 12 12 17 11 21 -4 35 2 29 11 -3 6 1 7 10
4 8 -3 33 1 55 10 22 9 42 16 45 16 3 0 14 0 26 0 11 0 18 3 16 8 -3 4 9 8 26
10 57 4 66 6 61 14 -3 4 7 8 21 8 14 0 24 4 21 9 -3 5 0 9 7 8 41 -1 67 4 62
13 -4 6 7 10 25 10 20 0 29 4 25 11 -4 6 -1 10 6 8 29 -3 50 1 44 11 -4 6 7
10 25 10 17 0 29 4 26 9 -3 4 4 8 17 7 12 0 21 4 20 10 -1 6 4 11 12 11 8 0
11 -5 8 -11 -3 -6 6 0 22 14 16 14 25 19 21 13 -4 -7 -3 -13 2 -13 6 0 13 7
16 16 3 9 13 14 21 10 8 -3 17 0 21 6 5 7 2 8 -6 3 -8 -5 -11 -4 -6 3 3 6 18
9 32 6 14 -3 23 -1 20 5 -3 5 8 14 24 20 17 5 30 7 30 4 0 -3 9 4 20 17 11 13
20 18 20 11 0 -7 9 -3 22 8 11 11 25 18 30 15 4 -3 8 0 8 7 0 7 3 10 6 6 4 -3
13 1 21 9 8 8 19 12 24 9 5 -4 9 -1 9 5 0 6 4 9 9 5 5 -3 16 1 24 9 24 25 104
66 112 58 5 -4 5 -2 2 4 -4 7 3 14 18 18 14 4 25 11 25 17 0 6 9 8 20 4 12 -4
20 -2 20 5 0 6 -5 8 -12 4 -7 -4 -8 -3 -4 4 4 7 14 12 22 12 8 0 14 5 14 10 0
6 6 9 13 8 6 -2 11 3 9 10 -1 8 2 11 7 8 13 -8 42 4 35 15 -3 5 4 9 15 9 12 0
21 5 21 10 0 6 7 10 15 10 8 0 15 5 15 10 0 6 3 9 8 9 19 -3 25 2 12 11 -13 8
-13 10 1 10 19 0 71 25 65 31 -2 2 12 14 31 26 19 13 31 17 28 10 -4 -6 0 -4
8 5 8 10 17 14 21 10 4 -4 7 -2 6 3 -5 21 0 36 10 30 6 -3 10 -1 10 6 0 7 3
10 6 6 3 -3 16 5 29 19 12 13 27 24 33 24 6 0 16 8 21 18 6 9 11 13 11 9 0 -4
16 8 36 28 19 19 40 32 46 29 6 -4 8 -3 5 3 -8 12 27 46 36 36 4 -3 7 1 7 11
0 9 5 14 10 11 6 -3 10 1 10 9 0 9 3 15 8 15 4 -1 14 -1 22 0 13 1 13 2 0 11
-11 7 -11 10 -2 10 7 0 31 18 53 40 22 22 45 40 50 40 6 0 8 3 6 8 -5 9 60 71
68 64 3 -3 5 6 5 19 0 19 2 21 10 9 9 -13 10 -13 11 0 1 8 1 18 0 23 0 4 3 6
7 5 11 -4 82 69 74 76 -3 3 3 6 14 6 16 0 17 2 4 10 -13 8 -13 10 2 10 10 0
24 12 32 28 8 15 24 34 35 42 12 8 21 20 21 28 0 7 5 10 10 7 6 -3 10 1 10 10
0 9 5 13 10 10 6 -3 10 3 10 15 0 12 5 18 10 15 6 -3 10 1 10 9 0 9 5 16 10
16 6 0 10 7 10 16 0 8 5 12 10 9 6 -3 10 0 10 7 0 8 9 20 19 28 11 7 18 17 15
22 -3 4 -2 8 3 8 4 0 14 14 21 30 8 17 18 28 23 24 5 -3 9 4 9 15 0 12 5 21
10 21 6 0 10 7 10 16 0 8 4 13 8 10 5 -3 15 7 23 22 8 15 17 29 21 32 3 3 8
12 10 20 2 8 11 21 21 28 9 7 15 17 12 22 -3 5 6 20 20 34 14 14 22 26 18 26
-4 0 0 7 11 15 11 8 16 20 12 30 -3 9 -2 13 4 10 6 -3 10 1 10 10 0 10 5 13
12 9 7 -5 9 -2 5 9 -3 9 0 18 9 21 8 3 14 14 14 24 0 10 9 28 20 40 11 12 20
31 20 42 0 12 5 18 10 15 6 -3 10 2 10 13 0 10 8 27 18 38 9 10 19 28 20 39 2
11 8 22 13 23 5 2 9 10 9 18 0 8 6 14 13 14 9 0 9 2 -1 9 -11 7 -10 9 3 15 9
3 14 10 10 15 -3 5 -1 12 5 16 5 3 10 15 10 26 0 11 6 22 14 25 8 3 13 11 10
19 -3 7 2 20 11 29 9 9 13 20 10 26 -3 5 -1 10 5 10 6 0 8 5 5 10 -3 6 -2 10
4 10 5 0 8 9 6 21 -3 13 0 19 8 16 7 -3 13 7 14 25 1 16 12 43 25 60 12 17 17
28 10 24 -7 -4 -12 -2 -12 3 0 6 4 11 8 11 8 0 29 51 37 87 2 10 8 30 13 44 6
15 8 30 5 33 -4 3 -1 6 5 6 7 0 11 3 11 8 -1 4 0 10 1 15 1 4 3 13 4 20 1 6 7
11 14 10 6 -2 9 4 5 13 -5 13 -7 13 -14 2 -5 -8 -9 -9 -9 -2 0 6 6 17 14 23 8
7 13 21 11 31 -2 11 1 22 6 25 5 4 7 11 4 16 -4 5 -2 9 4 9 6 0 8 7 5 15 -4 8
-1 15 6 15 10 0 9 4 0 16 -11 12 -11 15 1 12 10 -2 13 5 12 25 -2 19 3 27 15
27 10 0 13 3 7 8 -9 6 -12 26 -5 35 2 2 7 25 15 62 5 25 13 58 15 65 1 3 1 17
0 33 -1 15 2 27 7 27 5 0 10 19 12 42 1 23 7 45 13 49 7 4 7 8 0 13 -6 3 -10
15 -9 26 1 10 4 17 8 14 3 -2 7 17 7 43 1 26 7 50 14 55 10 6 10 8 -2 8 -13 0
-13 1 0 10 13 9 13 10 0 10 -13 0 -13 1 0 10 13 9 13 10 0 10 -12 0 -12 2 -2
8 9 6 13 38 14 100 1 53 5 89 11 85 5 -3 4 4 -2 15 -8 15 -8 23 0 28 8 4 7 9
-2 15 -10 6 -11 9 -1 9 6 0 12 12 12 26 0 17 -4 23 -12 18 -10 -6 -10 -4 -2 7
15 18 16 359 2 377 -7 8 -7 12 3 12 10 0 10 3 1 12 -7 7 -12 17 -12 23 0 5 4
4 9 -4 7 -10 9 -7 8 12 -1 14 -5 23 -9 20 -5 -2 -8 0 -8 6 0 5 6 12 12 14 10
4 10 6 1 6 -9 1 -13 23 -13 75 0 42 -5 78 -10 81 -8 5 -7 11 1 21 9 11 8 14
-2 14 -12 0 -12 2 0 9 8 5 9 10 2 12 -6 2 -11 27 -12 56 -1 29 -5 50 -9 48 -4
-2 -7 2 -7 10 0 8 3 12 7 10 4 -2 7 2 7 10 0 8 -4 12 -9 9 -8 -5 -13 39 -10
79 1 12 -2 16 -11 11 -7 -5 -6 0 3 11 8 10 10 16 4 12 -7 -4 -12 3 -13 18 -1
14 -2 36 -3 49 -1 14 -6 22 -10 20 -4 -3 -8 10 -8 29 0 18 -3 37 -7 41 -5 4
-9 17 -10 29 -3 25 -10 70 -13 77 -1 3 -2 8 -1 13 0 4 -5 7 -12 7 -8 0 -7 4 3
10 11 7 12 10 2 10 -8 0 -12 6 -9 13 2 6 -3 18 -12 25 -10 8 -10 11 -2 6 10
-5 12 -3 5 7 -10 16 -14 35 -16 66 0 13 -5 20 -11 16 -6 -4 -8 0 -4 10 4 10 0
20 -11 26 -9 6 -12 11 -6 11 6 0 11 7 11 15 0 8 -4 12 -9 9 -7 -4 -13 35 -9
59 1 5 -3 6 -9 2 -6 -4 -10 5 -10 20 0 15 -4 24 -10 20 -6 -3 -11 3 -11 14 -1
12 -3 24 -4 29 -1 4 -6 22 -10 40 -4 18 -12 35 -16 38 -5 3 -9 14 -9 24 0 10
-6 23 -12 27 -7 4 -14 15 -15 23 -4 33 -30 90 -38 83 -4 -5 -5 0 -2 9 3 10 2
20 -4 24 -6 3 -8 13 -5 21 3 8 1 11 -4 8 -6 -3 -10 1 -10 10 0 9 -4 14 -8 11
-4 -2 -9 7 -10 22 -1 14 -7 31 -12 36 -6 6 -10 18 -10 28 0 10 -4 18 -10 18
-5 0 -10 7 -10 16 0 8 -5 12 -10 9 -6 -4 -10 -3 -9 2 4 22 -2 43 -11 38 -6 -4
-10 5 -10 19 0 14 -4 26 -10 26 -5 0 -10 9 -10 20 0 11 -4 20 -8 20 -5 0 -15
12 -23 28 -8 15 -18 30 -24 34 -6 5 -4 8 4 8 9 0 7 6 -8 19 -12 11 -23 28 -24
39 0 12 -5 18 -9 16 -4 -3 -14 11 -22 31 -9 20 -20 34 -26 30 -5 -3 -10 3 -10
14 0 12 -8 29 -17 39 -10 10 -19 24 -21 31 -1 7 -9 20 -17 28 -9 8 -13 19 -9
24 3 5 0 8 -7 7 -7 -2 -13 2 -14 9 0 6 -12 25 -27 41 -14 17 -24 33 -21 36 4
3 1 6 -6 6 -7 0 -9 5 -6 10 3 6 -1 10 -10 10 -9 0 -13 5 -10 10 3 6 1 10 -5
10 -6 0 -8 5 -5 10 3 6 -2 10 -11 10 -10 0 -14 3 -11 6 4 4 -3 15 -15 25 -11
11 -17 19 -12 19 5 0 1 5 -8 11 -10 5 -18 17 -18 25 0 8 -4 12 -10 9 -5 -3
-10 1 -10 9 0 9 -4 16 -10 16 -5 0 -10 7 -10 16 0 8 -4 12 -10 9 -5 -3 -10 -1
-10 5 0 7 -13 25 -30 40 -16 15 -30 33 -30 39 0 6 -4 11 -9 11 -5 0 -26 23
-46 50 -20 28 -41 48 -46 44 -5 -3 -9 2 -9 10 0 9 -5 16 -11 16 -5 0 -7 5 -4
10 3 6 1 10 -5 10 -15 0 -41 26 -33 34 4 3 -1 6 -10 6 -11 0 -17 8 -18 23 0
12 -3 16 -6 9 -3 -9 -10 -7 -24 9 -10 12 -16 26 -12 32 3 5 1 7 -4 4 -6 -4
-33 15 -61 42 -28 27 -53 46 -56 43 -3 -3 -6 3 -6 13 0 10 -3 16 -6 12 -3 -3
-17 4 -30 16 -12 12 -30 28 -39 35 -8 7 -13 18 -9 23 3 5 2 9 -3 8 -4 -1 -17
-1 -28 0 -17 1 -18 3 -5 11 11 7 11 10 2 10 -7 0 -22 9 -34 20 -12 11 -28 20
-35 20 -8 0 -11 5 -8 10 3 6 0 10 -8 10 -8 0 -22 10 -31 23 -9 12 -14 15 -11
7 4 -8 -3 -3 -15 13 -12 15 -28 27 -36 27 -8 0 -14 5 -14 10 0 6 -7 10 -15 10
-9 0 -18 7 -21 15 -4 8 -10 12 -15 9 -5 -3 -9 0 -9 5 0 6 -7 11 -16 11 -8 0
-12 5 -9 10 3 6 -1 10 -9 10 -9 0 -16 5 -16 10 0 6 -9 10 -21 10 -11 0 -17 5
-14 10 3 6 1 10 -5 10 -6 0 -20 9 -32 20 -12 11 -28 20 -35 20 -7 0 -13 4 -13
8 0 5 -18 17 -40 27 -22 10 -37 22 -33 28 4 6 1 7 -6 3 -7 -5 -19 0 -27 10 -9
11 -12 12 -8 5 4 -8 -7 -4 -25 10 -52 38 -145 87 -155 81 -5 -3 -6 0 -2 6 5 8
0 12 -13 12 -12 0 -21 5 -21 10 0 6 -3 9 -7 9 -24 -4 -43 3 -41 14 2 7 -6 12
-19 11 -13 -1 -20 3 -17 7 4 8 -9 11 -32 8 -3 0 -11 7 -18 17 -7 9 -18 14 -23
11 -6 -4 -14 0 -17 9 -3 8 -11 12 -17 9 -5 -4 -17 1 -25 11 -9 11 -12 13 -9 6
6 -11 3 -11 -16 0 -13 7 -27 18 -31 23 -4 6 -8 6 -8 1 0 -5 -9 -1 -19 8 -11
10 -24 15 -29 12 -5 -3 -18 1 -28 9 -10 8 -29 15 -42 15 -13 0 -20 4 -17 10 4
6 -7 10 -24 10 -17 0 -31 5 -31 10 0 6 -14 10 -31 10 -16 0 -28 4 -25 8 3 5
-9 9 -27 10 -17 0 -33 6 -35 11 -2 6 -15 11 -28 11 -14 0 -23 4 -20 8 3 5 -1
9 -9 9 -8 0 -11 -5 -8 -11 3 -6 0 -5 -8 2 -7 6 -21 12 -31 12 -10 0 -18 5 -18
10 0 6 -13 10 -29 10 -17 0 -33 5 -37 11 -4 8 -9 7 -15 -2 -6 -10 -9 -11 -9
-1 0 6 -7 12 -16 12 -8 0 -12 5 -8 11 4 8 0 8 -15 0 -19 -11 -25 -8 -23 10 1
3 -9 4 -22 2 -13 -3 -27 0 -30 6 -5 8 -13 8 -28 0 -15 -8 -19 -8 -14 0 4 6 -1
12 -11 13 -30 2 -67 6 -78 7 -5 1 -3 6 5 11 11 8 8 9 -11 4 -15 -3 -30 -1 -34
5 -4 8 -12 8 -26 1 -10 -6 -19 -7 -19 -2 0 5 -6 9 -12 10 -52 6 -77 10 -88 17
-20 13 -70 13 -70 1 0 -8 -2 -8 -8 0 -7 11 -21 14 -74 15 -15 1 -26 5 -23 9 6
10 -15 8 -32 -3 -6 -4 -13 -3 -15 3 -2 6 -42 11 -90 12 -56 2 -84 6 -80 13 3
5 -2 4 -11 -4 -9 -7 -17 -9 -17 -4 0 5 -91 10 -215 10 -155 2 -214 -1 -209 -9
5 -7 2 -8 -7 -2 -23 14 -62 17 -54 3 6 -8 2 -8 -13 0 -25 13 -35 14 -28 3 3
-5 -1 -9 -9 -9 -8 0 -12 3 -10 7 2 4 -2 7 -10 7 -8 0 -12 -4 -9 -9 3 -4 -4 -8
-15 -8 -10 0 -21 6 -23 13 -4 9 -6 9 -9 0z m1011 -49 c0 -8 -19 -13 -24 -6 -3
5 1 9 9 9 8 0 15 -2 15 -3z m-696 -632 c17 -1 33 4 38 10 5 9 8 9 8 2 0 -8 35
-12 107 -13 58 -1 111 -5 117 -9 17 -10 37 -11 30 -1 -3 5 -1 9 5 9 5 0 11 -6
14 -12 3 -10 9 -10 26 0 24 14 43 16 21 2 -11 -7 0 -10 38 -10 34 0 52 -4 53
-12 0 -10 2 -10 6 0 2 6 11 12 19 12 8 0 14 -6 15 -12 0 -10 2 -10 6 0 2 6 9
12 14 12 6 0 7 -4 4 -10 -4 -6 9 -10 32 -10 22 0 45 -6 52 -12 11 -10 13 -10
7 0 -5 7 -1 12 9 12 9 0 14 -4 11 -8 -5 -8 13 -11 72 -12 17 0 32 -5 32 -10 0
-5 10 -10 23 -10 40 0 57 -3 57 -12 0 -4 5 -8 11 -8 5 0 8 4 5 8 -3 5 1 9 9 9
8 0 12 -4 9 -9 -3 -4 3 -8 13 -8 11 0 25 -6 32 -12 8 -7 11 -8 8 -2 -3 6 0 11
8 11 8 0 12 -4 9 -9 -3 -4 4 -8 16 -8 12 0 30 -5 40 -10 10 -6 32 -11 47 -12
15 -1 31 -6 35 -12 5 -8 15 -10 61 -15 5 -1 6 -5 3 -9 -3 -5 1 -9 9 -9 8 0 12
4 9 9 -3 4 0 8 5 8 6 0 11 -4 11 -8 0 -9 59 -32 83 -32 9 0 17 -5 17 -12 0 -6
3 -8 7 -5 3 4 17 0 30 -8 13 -9 28 -13 33 -10 6 3 10 1 10 -5 0 -6 5 -8 10 -5
6 3 10 1 10 -4 0 -6 9 -11 20 -11 11 0 20 -5 20 -12 0 -6 3 -8 7 -5 3 4 12 2
20 -4 7 -6 13 -8 13 -3 0 5 4 5 8 -1 11 -15 82 -46 92 -40 4 3 11 -2 14 -11 4
-9 13 -14 21 -10 8 3 14 0 12 -6 -1 -7 7 -12 18 -13 11 0 19 -6 17 -13 -1 -6
1 -11 5 -11 25 4 53 -2 48 -11 -5 -9 16 -15 38 -11 5 1 6 -3 2 -9 -3 -6 3 -10
15 -10 12 0 18 -4 15 -10 -5 -9 1 -12 21 -9 3 0 14 -9 23 -20 10 -12 26 -21
35 -21 9 0 16 -4 16 -10 0 -5 9 -10 21 -10 11 0 17 -4 14 -10 -3 -5 2 -10 13
-10 10 0 27 -9 37 -20 10 -11 24 -20 32 -20 7 0 13 -8 13 -17 0 -15 2 -16 10
-3 8 12 10 12 16 -3 3 -9 12 -17 19 -17 7 0 15 -7 19 -15 3 -8 9 -14 13 -13 5
2 19 -7 33 -19 13 -13 28 -23 32 -23 5 0 6 -5 2 -12 -4 -7 -3 -8 4 -4 13 8 54
-29 44 -40 -4 -4 -2 -4 5 -1 6 4 18 0 26 -8 9 -8 24 -15 34 -15 15 0 16 -2 3
-10 -13 -9 -13 -10 0 -11 8 -1 18 -1 23 0 4 0 7 -5 7 -13 0 -8 9 -18 20 -21
11 -3 20 -12 20 -19 0 -7 12 -18 26 -24 15 -7 22 -17 18 -24 -4 -7 -3 -8 5 -4
6 4 14 0 17 -8 3 -9 13 -16 21 -16 8 0 11 -4 8 -10 -3 -5 1 -10 9 -10 8 0 18
-9 21 -20 3 -11 13 -20 21 -20 8 0 14 -4 14 -10 0 -5 7 -10 15 -10 8 0 15 -5
15 -10 0 -6 24 -33 53 -62 28 -28 45 -48 37 -43 -8 5 6 -12 32 -37 29 -29 42
-49 35 -52 -7 -4 -2 -4 11 -2 13 3 22 -1 22 -9 0 -7 7 -18 15 -25 8 -7 12 -17
8 -24 -3 -6 -3 -8 2 -4 9 8 35 -15 35 -32 0 -6 5 -8 10 -5 6 3 10 -3 10 -15 0
-12 5 -18 10 -15 6 3 10 -3 10 -15 0 -12 4 -19 8 -16 5 3 15 -7 23 -22 8 -15
24 -37 37 -50 12 -13 20 -28 17 -33 -4 -5 2 -9 11 -9 10 0 15 -3 11 -6 -3 -4
1 -13 9 -21 8 -8 11 -20 7 -26 -4 -7 2 -5 13 3 10 8 16 11 12 6 -4 -5 -2 -18
4 -30 7 -11 11 -24 10 -28 -1 -5 3 -8 10 -8 6 0 9 -3 5 -6 -3 -3 4 -17 16 -31
12 -13 22 -28 23 -31 3 -22 18 -41 28 -35 6 3 8 3 4 -2 -9 -9 29 -75 49 -88 6
-4 10 -14 7 -22 -4 -8 -1 -15 6 -15 6 0 9 -4 6 -9 -3 -5 1 -12 10 -15 9 -4 14
-9 11 -13 -4 -3 -1 -15 5 -27 7 -11 11 -24 10 -28 -1 -5 5 -8 13 -8 8 0 15 -9
15 -19 0 -11 5 -23 10 -26 6 -3 10 -17 10 -31 0 -13 3 -24 8 -24 4 0 13 -9 20
-21 8 -12 9 -18 3 -14 -6 3 -11 1 -11 -4 0 -6 5 -11 10 -11 6 0 10 -9 10 -20
0 -11 5 -20 10 -20 6 0 10 -12 10 -26 0 -14 4 -23 10 -19 6 3 10 -3 10 -14 0
-11 5 -23 10 -26 6 -3 10 -17 10 -31 0 -13 5 -24 10 -24 6 0 10 -11 10 -24 0
-14 5 -28 10 -31 6 -3 10 -17 10 -31 0 -13 4 -24 9 -24 5 0 11 -9 14 -20 3
-13 1 -18 -6 -13 -7 3 -3 -4 8 -17 11 -13 14 -20 8 -16 -7 4 -13 2 -13 -3 0
-6 8 -11 18 -11 14 0 15 -2 2 -10 -9 -6 -10 -10 -3 -10 6 0 10 -9 8 -20 -2
-11 1 -20 6 -20 6 0 7 -4 4 -10 -3 -5 -2 -10 4 -10 6 0 8 -7 5 -15 -4 -8 -1
-15 5 -15 9 0 9 -5 0 -21 -8 -15 -8 -19 0 -15 10 7 16 -12 12 -41 -1 -7 4 -13
10 -13 7 0 9 -3 6 -7 -4 -3 -2 -12 4 -20 9 -10 8 -13 -2 -13 -9 0 -10 -3 -4
-8 12 -9 18 -30 16 -60 0 -13 3 -21 7 -18 4 2 9 -13 9 -36 1 -22 8 -47 15 -56
11 -13 11 -15 -2 -7 -12 6 -13 5 -2 -6 6 -7 12 -32 12 -55 0 -24 5 -46 10 -49
6 -3 10 -12 10 -18 0 -7 -4 -6 -10 3 -7 12 -9 10 -7 -7 0 -12 5 -19 9 -17 4 3
8 0 8 -5 0 -6 -6 -11 -12 -11 -10 0 -9 -3 0 -9 8 -5 14 -26 14 -47 0 -22 5
-42 11 -46 9 -6 9 -8 0 -8 -7 0 -13 -5 -13 -11 0 -5 4 -8 9 -5 10 7 9 -13 -2
-31 -4 -6 -3 -14 3 -18 5 -3 10 -11 10 -16 0 -6 -6 -7 -12 -3 -10 6 -10 4 0
-8 7 -9 12 -31 12 -49 0 -19 0 -109 1 -201 1 -131 -1 -171 -12 -185 -11 -13
-11 -15 -1 -9 11 6 13 1 10 -20 -1 -16 -7 -32 -13 -36 -6 -5 -5 -8 3 -8 6 0
12 -9 12 -21 0 -11 -3 -18 -7 -16 -5 3 -9 -6 -9 -19 -1 -15 2 -21 10 -17 7 4
6 1 -2 -9 -6 -8 -13 -41 -13 -72 -1 -36 -5 -53 -10 -44 -7 10 -9 9 -9 -4 0
-10 5 -18 10 -18 6 0 10 -5 10 -11 0 -5 -6 -7 -12 -3 -8 5 -7 0 2 -11 8 -10
10 -16 4 -12 -8 5 -12 -6 -12 -34 -1 -22 -7 -48 -14 -57 -9 -11 -10 -14 -1 -8
9 5 11 2 7 -8 -3 -9 -9 -16 -13 -16 -4 0 -5 -16 -3 -36 3 -27 1 -35 -8 -29 -9
6 -9 3 0 -15 8 -15 8 -20 1 -16 -7 5 -11 -5 -11 -29 0 -20 -4 -34 -8 -31 -4 2
-9 -4 -9 -15 -1 -11 3 -17 8 -13 5 3 0 -11 -11 -31 -11 -20 -16 -34 -10 -30
15 9 12 -4 -4 -21 -8 -8 -12 -23 -9 -35 5 -17 3 -20 -7 -14 -9 5 -11 4 -6 -4
4 -6 3 -17 -2 -24 -5 -7 -8 -20 -7 -29 2 -10 -1 -18 -6 -18 -4 0 -6 -6 -3 -14
3 -8 1 -17 -5 -21 -6 -3 -11 -17 -11 -31 0 -14 -4 -23 -9 -20 -5 4 -8 -2 -6
-11 1 -10 -4 -30 -11 -45 -8 -15 -14 -36 -14 -48 0 -12 -4 -18 -10 -15 -6 4
-10 -5 -10 -19 0 -14 -4 -26 -10 -26 -5 0 -10 -13 -10 -30 0 -16 -4 -30 -10
-30 -5 0 -10 -7 -10 -15 0 -8 -9 -30 -20 -50 -11 -20 -20 -42 -20 -50 0 -8 -6
-15 -12 -15 -9 0 -8 -4 2 -10 13 -8 12 -10 -3 -10 -10 0 -15 -4 -12 -10 3 -5
0 -10 -7 -10 -9 0 -9 -3 2 -10 8 -5 10 -10 4 -10 -6 0 -17 -12 -25 -27 -8 -16
-18 -31 -24 -35 -6 -5 -4 -8 5 -8 13 0 13 -1 0 -10 -8 -5 -15 -15 -15 -22 -1
-7 -6 -12 -13 -11 -7 2 -11 0 -11 -5 3 -19 -2 -33 -10 -28 -5 3 -9 0 -8 -7 1
-32 -4 -48 -13 -42 -5 3 -10 -1 -10 -10 0 -9 -4 -13 -10 -10 -6 3 -7 -1 -4 -9
4 -9 -1 -18 -10 -22 -9 -3 -14 -10 -11 -14 2 -4 -4 -18 -16 -31 -11 -12 -17
-28 -15 -35 3 -8 -1 -11 -10 -7 -10 4 -12 0 -8 -11 3 -9 1 -16 -5 -16 -6 0
-11 -6 -11 -14 0 -8 -8 -17 -17 -20 -15 -6 -15 -8 -3 -16 13 -8 12 -10 -3 -10
-10 0 -16 -4 -13 -8 3 -4 -10 -25 -29 -45 -19 -20 -31 -37 -28 -37 3 0 -4 -9
-16 -19 -12 -11 -23 -23 -24 -28 -1 -4 -6 -7 -12 -5 -5 2 -7 0 -3 -4 4 -4 -8
-26 -27 -50 -19 -23 -35 -47 -35 -53 0 -6 -9 -15 -20 -21 -11 -6 -20 -17 -20
-25 0 -8 -8 -15 -17 -15 -9 0 -14 -3 -11 -6 3 -3 -20 -31 -51 -62 -31 -31 -49
-52 -41 -47 13 8 13 6 1 -8 -7 -9 -17 -15 -21 -12 -5 3 -14 -8 -22 -25 -12
-28 -21 -34 -41 -31 -5 1 -6 -3 -2 -9 3 -5 1 -10 -5 -10 -6 0 -8 -4 -5 -10 6
-9 -8 -14 -28 -11 -5 1 -6 -3 -2 -9 3 -5 -1 -10 -9 -10 -9 0 -16 -6 -16 -14 0
-8 -9 -18 -20 -21 -11 -4 -18 -11 -15 -16 4 -5 2 -9 -3 -9 -5 0 -36 -25 -68
-55 -33 -30 -66 -55 -74 -55 -13 0 -13 -1 0 -10 13 -8 12 -10 -2 -10 -10 0
-18 -4 -18 -10 0 -5 -7 -10 -15 -10 -8 0 -15 -4 -15 -10 0 -5 -7 -10 -16 -10
-8 0 -12 -4 -9 -10 3 -5 -1 -10 -9 -10 -9 0 -16 -4 -16 -10 0 -5 -7 -10 -15
-10 -8 0 -15 -4 -15 -10 0 -5 -7 -10 -16 -10 -8 0 -12 -4 -9 -10 3 -5 0 -10
-7 -10 -8 0 -20 -9 -28 -20 -10 -14 -16 -16 -22 -7 -5 8 -8 6 -8 -7 0 -11 -3
-17 -6 -14 -7 8 -42 -25 -37 -34 2 -4 -2 -5 -10 -2 -8 3 -20 -2 -27 -11 -7 -8
-22 -15 -34 -15 -17 0 -18 -2 -6 -10 12 -8 10 -10 -9 -10 -14 0 -34 -9 -46
-20 -11 -11 -42 -30 -68 -43 -26 -13 -44 -27 -40 -31 3 -3 -4 -6 -16 -6 -14 0
-20 -4 -15 -12 4 -7 3 -8 -5 -4 -14 9 -43 -12 -35 -25 3 -5 0 -9 -5 -9 -6 0
-11 6 -11 13 0 8 -4 7 -10 -3 -5 -8 -10 -11 -10 -7 0 5 -7 1 -16 -7 -8 -9 -19
-14 -24 -11 -4 3 -10 -2 -14 -10 -3 -8 -15 -15 -26 -15 -12 0 -19 -4 -16 -8 2
-4 -5 -9 -16 -9 -12 -1 -25 -8 -29 -15 -7 -10 -9 -10 -9 2 -1 12 -3 11 -11 -3
-6 -9 -14 -15 -20 -12 -5 4 -9 1 -9 -4 0 -6 -12 -11 -26 -11 -14 0 -23 -4 -19
-10 3 -6 -5 -10 -19 -10 -14 0 -28 -4 -31 -10 -3 -5 -15 -10 -26 -10 -11 0
-18 -4 -15 -8 2 -4 -3 -8 -12 -9 -30 -2 -47 -8 -54 -17 -3 -5 -20 -9 -38 -9
-20 0 -26 -3 -18 -9 9 -5 7 -8 -7 -9 -34 -2 -39 -4 -61 -16 -12 -7 -24 -9 -28
-6 -3 3 -6 0 -6 -8 0 -12 -2 -12 -10 1 -8 12 -10 12 -16 -3 -3 -9 -10 -15 -14
-12 -5 3 -11 1 -15 -5 -4 -7 -13 -6 -27 1 -13 7 -18 7 -14 1 4 -7 -11 -13 -39
-17 -25 -4 -45 -11 -45 -15 0 -5 -8 -7 -17 -6 -10 2 -23 -4 -29 -13 -10 -13
-14 -13 -28 -2 -9 7 -16 9 -16 4 0 -5 -11 -10 -26 -11 -14 -1 -34 -7 -46 -13
-16 -9 -19 -8 -13 2 6 8 4 10 -6 3 -17 -10 -36 -15 -66 -17 -13 0 -23 -5 -23
-10 0 -4 -8 -7 -17 -6 -10 1 -38 0 -63 -1 -35 -1 -41 -3 -25 -10 16 -7 17 -9
3 -9 -9 -1 -20 4 -24 10 -4 8 -9 8 -17 0 -7 -7 -15 -7 -26 2 -12 9 -13 9 -7 0
7 -13 -20 -17 -82 -15 -12 1 -21 -2 -18 -6 2 -4 -7 -8 -22 -9 -24 -2 -25 -1
-7 7 18 8 17 9 -5 7 -14 -1 -30 -6 -36 -9 -6 -4 -31 -7 -55 -7 -24 1 -133 0
-242 -1 -137 -1 -202 1 -211 9 -10 8 -16 9 -21 1 -3 -5 -11 -10 -16 -10 -6 0
-7 6 -3 13 5 7 0 6 -11 -3 -11 -9 -16 -10 -11 -2 4 6 3 12 -3 12 -5 0 -13 -4
-16 -10 -3 -5 -14 -10 -23 -9 -14 0 -13 2 3 9 14 6 -2 9 -50 9 -42 1 -77 6
-84 14 -11 10 -12 9 -6 -3 7 -12 6 -13 -6 -3 -8 7 -39 14 -67 15 -29 2 -52 7
-52 12 0 6 -5 5 -12 -2 -8 -8 -15 -8 -23 -2 -7 6 -33 11 -58 12 -34 2 -41 5
-31 13 11 8 5 10 -23 12 -48 2 -86 8 -99 14 -5 3 -21 5 -36 4 -15 0 -26 4 -25
9 1 6 -14 10 -35 11 -20 0 -34 3 -31 7 2 5 1 8 -4 9 -4 0 -17 3 -28 5 -11 3
-28 5 -38 5 -10 0 -15 5 -11 11 5 7 2 9 -8 5 -9 -3 -28 1 -43 9 -15 8 -38 14
-51 14 -13 0 -24 5 -24 10 0 6 -12 10 -26 10 -14 0 -23 4 -19 10 5 9 -23 15
-47 11 -5 0 -8 3 -8 9 0 5 -8 10 -18 10 -23 0 -72 22 -72 33 0 5 -4 6 -9 2 -5
-3 -17 2 -25 11 -12 11 -16 12 -16 2 0 -8 -5 -6 -11 5 -6 9 -14 15 -20 12 -5
-4 -9 -1 -9 4 0 6 -11 11 -25 11 -14 0 -28 6 -31 14 -3 8 -12 12 -20 9 -7 -3
-16 2 -20 10 -3 9 -12 13 -20 10 -8 -3 -14 0 -14 6 0 6 -7 11 -15 11 -8 0 -15
5 -15 11 0 5 -4 7 -10 4 -5 -3 -10 -1 -10 4 0 6 -9 11 -21 11 -11 0 -17 5 -14
10 3 6 -3 10 -14 10 -12 0 -21 5 -21 10 0 6 -5 10 -11 10 -5 0 -7 -5 -3 -12 4
-7 3 -8 -4 -4 -7 4 -12 14 -12 22 0 12 -19 19 -43 15 -5 -1 -6 3 -2 9 3 6 -3
10 -15 10 -12 0 -18 5 -15 10 3 6 -1 10 -10 10 -18 0 -47 25 -39 33 3 2 -6 4
-18 3 -14 0 -22 4 -21 11 2 7 0 12 -5 12 -21 -4 -42 2 -37 10 3 5 -4 12 -15
16 -11 3 -20 10 -20 15 0 5 -9 12 -20 15 -11 4 -31 17 -44 30 -13 13 -26 21
-29 19 -3 -3 -10 4 -17 15 -6 12 -15 19 -21 16 -5 -4 -9 -1 -9 4 0 6 -7 11
-16 11 -8 0 -12 5 -9 10 3 6 0 10 -8 10 -7 0 -23 11 -35 25 -13 14 -27 23 -32
20 -6 -3 -10 2 -10 11 0 10 -3 15 -6 11 -8 -8 -34 18 -34 34 0 7 -3 10 -6 6
-3 -3 -26 14 -50 38 -24 25 -44 41 -44 37 0 -4 -5 1 -11 10 -5 10 -18 18 -27
18 -15 0 -15 2 -2 10 13 8 12 10 -3 10 -10 0 -20 7 -23 15 -4 8 -9 13 -13 11
-3 -2 -12 2 -19 10 -7 8 -10 14 -7 14 3 0 -10 15 -30 34 -19 19 -35 39 -35 46
0 6 -5 8 -10 5 -9 -6 -14 8 -11 28 0 4 -8 7 -18 7 -11 0 -23 9 -26 20 -3 11
-11 20 -16 20 -6 0 -7 5 -4 10 3 6 -1 10 -10 10 -9 0 -13 5 -10 10 3 6 -1 10
-9 10 -9 0 -16 6 -16 13 0 7 -9 20 -20 30 -11 9 -20 25 -20 34 0 15 -2 16 -10
3 -8 -12 -10 -10 -10 8 0 13 -4 20 -10 17 -6 -3 -10 1 -10 9 0 9 -4 16 -8 16
-5 0 -14 16 -22 35 -7 19 -17 32 -22 29 -4 -3 -8 0 -8 5 0 6 -7 11 -16 11 -8
0 -12 4 -9 10 3 5 -5 20 -17 33 -13 13 -22 29 -20 35 2 7 -3 15 -12 18 -9 3
-16 13 -16 21 0 8 -5 11 -10 8 -6 -4 -10 5 -10 20 0 15 -4 24 -10 20 -5 -3
-10 2 -10 13 0 10 -9 28 -20 39 -11 12 -21 27 -22 34 -2 7 -13 24 -26 37 -12
13 -20 28 -17 33 4 5 1 9 -4 9 -6 0 -11 10 -11 22 0 12 -3 18 -7 15 -8 -9 -32
23 -33 44 0 8 -9 25 -20 36 -11 12 -15 23 -9 25 6 2 -1 16 -15 31 -14 15 -22
27 -19 27 3 0 -2 12 -12 26 -9 14 -15 35 -12 45 3 10 1 17 -4 13 -8 -5 -13 9
-10 29 0 4 -4 7 -10 7 -5 0 -7 5 -4 10 3 6 3 10 -2 10 -12 0 -33 50 -33 77 0
13 -4 23 -10 23 -5 0 -10 9 -10 20 0 11 -5 20 -11 20 -6 0 -9 6 -6 14 3 7 0
19 -6 25 -6 6 -7 11 -3 11 5 0 1 11 -8 25 -9 14 -14 25 -11 25 3 0 -1 13 -10
30 -8 16 -15 38 -15 50 0 11 -5 20 -11 20 -8 0 -7 6 2 17 12 14 12 16 0 8 -11
-6 -13 -4 -8 7 3 9 1 20 -5 26 -6 6 -13 26 -15 44 -2 17 -7 34 -11 37 -4 4 -8
17 -10 31 -1 14 -3 31 -4 38 -1 6 -6 12 -12 12 -6 0 -4 5 4 10 8 5 10 10 5 10
-6 0 -12 12 -13 26 -1 15 -8 34 -15 42 -10 13 -9 14 3 7 12 -6 13 -5 3 6 -7 7
-13 33 -13 57 0 24 -3 41 -8 39 -4 -3 -8 23 -10 56 -2 34 -7 64 -13 65 -6 3
-6 9 1 17 8 9 8 15 0 20 -5 3 -10 28 -10 54 0 26 -6 53 -12 60 -11 11 -11 13
0 7 7 -5 12 -1 12 9 0 10 -5 13 -12 9 -9 -5 -9 -2 1 9 9 11 10 17 2 17 -6 0
-11 7 -11 16 0 8 5 12 10 9 6 -3 10 -2 10 4 0 5 -4 11 -10 13 -5 2 -10 67 -11
148 -1 86 -7 151 -13 159 -8 11 -8 13 1 7 10 -5 13 16 13 96 0 68 4 108 12
116 9 9 9 12 0 12 -7 0 -12 5 -12 11 0 5 4 7 10 4 5 -3 10 1 10 10 0 9 -4 14
-8 11 -5 -3 -9 1 -9 9 0 8 4 12 10 8 5 -3 8 5 7 18 -5 58 0 90 13 83 8 -5 8
-2 -2 9 -11 14 -11 17 0 17 9 0 10 3 4 8 -13 9 -18 35 -5 27 14 -9 13 8 -2 24
-10 11 -10 13 -1 7 12 -7 18 17 14 53 -2 7 2 11 6 8 5 -3 10 4 10 16 2 17 0
19 -7 7 -5 -8 -10 -10 -10 -4 0 5 4 14 10 20 5 5 10 26 12 47 1 20 6 37 11 37
5 0 7 14 5 30 -3 17 -2 30 2 30 3 0 7 10 7 22 1 13 6 24 11 26 5 1 7 14 4 27
-2 14 0 25 6 25 6 0 8 9 5 20 -3 12 0 20 6 20 7 0 9 5 6 10 -4 6 -1 18 7 27
11 14 11 16 -2 8 -13 -8 -13 -6 -1 8 7 9 11 24 7 32 -3 9 -2 13 4 10 6 -3 10
3 10 14 0 12 4 21 9 21 5 0 7 9 4 20 -3 12 0 20 6 20 7 0 9 5 6 10 -3 6 -1 10
6 10 8 0 7 5 -2 17 -8 9 -9 14 -4 11 6 -4 15 5 22 18 8 18 8 22 0 17 -7 -4 -6
1 2 10 7 9 10 17 6 17 -5 0 0 9 9 19 10 11 15 24 12 30 -4 5 -1 13 5 16 5 4 8
14 5 22 -3 8 -1 11 4 8 10 -6 14 7 11 34 -2 7 2 10 8 6 7 -4 11 5 11 23 0 16
6 35 14 42 8 6 12 19 9 27 -4 11 -2 14 5 9 8 -5 12 0 12 13 0 10 4 21 10 23 5
2 11 13 13 26 2 13 10 31 18 41 14 18 21 36 22 58 0 7 5 11 11 10 6 -1 11 7
11 17 0 11 6 21 13 24 6 2 12 12 12 23 0 10 5 19 10 19 6 0 10 10 10 23 0 18
2 19 10 7 8 -12 10 -9 10 13 0 15 5 27 10 27 6 0 10 6 10 13 0 7 9 23 20 35
11 12 20 26 20 32 0 6 4 8 10 5 6 -3 7 1 4 9 -4 9 1 18 10 22 9 3 13 10 10 15
-3 5 0 9 6 9 6 0 9 4 6 9 -3 5 1 14 10 21 8 7 13 19 10 26 -3 8 0 13 7 11 7
-1 11 4 9 11 -1 6 5 12 13 12 8 0 15 7 15 15 0 9 7 18 15 21 8 4 12 10 9 15
-3 5 0 9 5 9 6 0 11 7 11 16 0 8 4 13 8 10 4 -2 19 16 32 41 13 25 26 40 28
34 2 -6 14 8 26 31 11 24 27 42 34 40 8 -1 11 2 7 8 -3 5 -1 10 6 10 7 0 9 3
6 7 -4 3 2 12 13 20 11 8 20 20 20 28 0 9 6 12 15 8 10 -3 15 0 13 8 -2 8 3
13 10 11 8 -1 11 1 8 6 -3 5 4 16 15 25 11 10 17 23 13 29 -4 6 -3 8 3 5 10
-7 73 58 73 75 0 5 5 6 10 3 6 -3 10 1 10 9 0 9 7 16 16 16 8 0 12 5 9 10 -3
6 1 10 9 10 9 0 16 5 16 10 0 6 7 10 16 10 8 0 12 5 9 10 -3 6 -1 10 4 10 6 0
30 19 52 43 23 23 46 41 50 39 5 -1 9 5 9 13 0 8 7 15 15 15 9 0 20 10 25 23
5 12 9 18 9 14 1 -7 11 0 46 31 7 6 22 12 32 13 16 0 16 1 -2 9 -18 8 -17 9 6
9 25 1 43 14 51 36 1 6 7 9 12 7 5 -2 12 1 15 6 3 5 25 22 48 39 23 17 39 34
35 38 -4 4 3 6 15 3 12 -3 21 -3 20 1 -1 3 2 6 6 6 5 0 13 8 18 18 6 9 19 17
30 17 11 0 17 5 14 10 -3 6 3 10 15 10 12 0 18 5 15 10 -3 6 3 10 14 10 12 0
21 5 21 10 0 6 5 10 11 10 5 0 37 18 69 40 32 22 66 40 74 40 9 0 16 8 16 18
0 14 2 15 10 2 7 -11 10 -11 10 -2 0 7 5 10 10 7 6 -3 10 1 10 9 0 9 5 16 11
16 5 0 7 -6 3 -12 -4 -7 1 -6 12 3 10 9 27 19 37 22 9 4 17 11 17 17 0 5 5 10
11 10 5 0 7 -6 3 -12 -4 -7 2 -5 13 5 11 9 23 14 26 10 4 -3 7 -1 7 5 0 7 11
12 25 12 14 0 25 5 25 10 0 6 9 10 20 10 11 0 20 5 20 10 0 6 9 10 20 10 11 0
20 4 20 8 0 4 12 9 28 10 15 1 29 7 30 12 2 6 8 8 13 4 5 -3 9 0 9 7 0 7 3 10
6 6 4 -3 13 0 20 8 8 7 23 11 35 8 17 -5 20 -3 14 8 -7 11 -5 11 10 -1 10 -8
16 -10 12 -3 -9 14 27 28 44 17 7 -4 9 -3 6 4 -5 6 8 13 33 17 22 4 38 10 36
14 -3 4 7 7 22 6 15 0 30 3 33 8 4 5 21 10 38 11 17 0 33 7 36 15 4 11 8 11
22 0 14 -12 16 -12 8 0 -6 11 -4 13 8 8 10 -3 17 -2 17 2 0 5 9 7 20 4 11 -3
20 0 20 6 0 6 5 11 11 11 5 0 7 -6 3 -12 -6 -10 -4 -10 7 0 7 6 28 12 47 12
19 0 31 4 27 10 -3 6 -1 10 4 10 6 0 11 -6 12 -12 0 -10 2 -10 6 0 2 7 22 12
44 12 30 0 38 3 33 13 -6 9 -4 9 8 -1 11 -9 18 -10 23 -2 3 5 22 10 41 10 19
0 33 4 30 8 -3 5 1 9 9 9 8 0 12 -3 10 -7 -2 -4 2 -7 10 -7 8 0 12 4 9 9 -3 4
0 8 5 8 6 0 11 -6 12 -12 0 -10 2 -10 6 0 3 8 26 12 64 12 34 0 58 4 55 9 -7
10 27 8 59 -4 16 -5 17 -5 5 4 -11 7 15 10 95 9 78 0 110 3 113 12 3 7 7 8 11
3 3 -5 19 -10 35 -11z"/>
<path d="M3450 7037 c0 -5 -7 -6 -16 -3 -9 4 -24 1 -32 -6 -13 -11 -14 -11 -7
2 5 10 1 8 -13 -4 -12 -10 -21 -21 -20 -25 2 -18 -3 -24 -11 -12 -6 9 -9 -169
-9 -442 0 -251 -3 -461 -7 -467 -3 -6 -11 -7 -17 -4 -5 4 -88 6 -184 5 -112 0
-173 3 -169 9 11 17 -7 11 -21 -7 -9 -12 -13 -13 -14 -5 0 10 -5 10 -21 1 -16
-8 -20 -8 -14 0 5 8 -1 10 -21 5 -17 -4 -25 -3 -21 3 3 5 0 10 -7 10 -8 0 -12
-7 -8 -15 4 -12 1 -13 -13 -5 -10 6 -27 8 -38 5 -12 -3 -18 -1 -14 5 3 5 0 10
-7 10 -8 0 -12 -7 -8 -15 4 -12 1 -13 -13 -5 -10 6 -27 8 -38 5 -12 -3 -18 -1
-14 5 3 5 0 10 -7 10 -8 0 -12 -7 -8 -15 4 -12 1 -13 -13 -5 -10 6 -27 8 -38
5 -12 -3 -18 -1 -14 5 3 5 0 10 -7 10 -8 0 -12 -7 -8 -15 4 -11 1 -13 -8 -7
-15 9 -229 9 -272 0 -23 -5 -27 -9 -17 -16 11 -7 11 -9 -2 -9 -9 0 -20 -11
-23 -24 -3 -13 -9 -32 -13 -42 -3 -10 -2 -15 3 -12 5 4 9 -4 9 -17 0 -16 -4
-21 -15 -17 -12 5 -13 3 -3 -9 17 -21 17 -219 0 -220 -7 0 -3 -4 8 -9 11 -5
14 -9 7 -9 -9 -1 -10 -6 -3 -20 6 -10 7 -22 3 -26 -4 -3 0 -5 8 -3 8 1 14 -1
14 -7 -1 -5 13 -17 32 -26 18 -9 30 -11 27 -5 -5 8 -3 8 8 0 8 -5 26 -10 41
-9 15 0 24 -3 22 -7 -3 -4 0 -8 5 -8 6 0 11 6 11 13 0 9 2 9 8 0 7 -12 35 -20
72 -22 13 -1 13 -3 0 -12 -12 -9 -12 -10 3 -5 21 7 87 -21 87 -36 0 -5 5 -6
10 -3 6 3 10 1 10 -5 0 -6 4 -9 8 -6 5 3 15 -4 22 -15 8 -10 19 -19 24 -19 5
0 25 -17 44 -37 19 -21 34 -38 33 -38 -1 0 1 -8 5 -18 3 -10 12 -16 19 -13 9
3 12 -3 10 -20 -1 -13 2 -24 7 -24 5 0 6 -4 3 -10 -3 -5 -1 -10 4 -10 6 0 11
-9 11 -20 0 -11 4 -20 8 -20 9 0 12 -17 12 -60 0 -19 2 -22 9 -11 12 18 11
106 12 -1024 1 -681 4 -924 12 -934 9 -12 9 -13 0 -7 -10 5 -13 -5 -14 -41 -1
-26 -1 -52 0 -57 1 -4 -3 -14 -9 -21 -6 -7 -10 -17 -9 -21 5 -27 -2 -64 -11
-59 -5 3 -10 -3 -10 -14 0 -29 -21 -71 -36 -71 -8 0 -10 -8 -6 -22 3 -11 1
-19 -4 -16 -11 6 -45 -28 -36 -36 3 -3 -2 -6 -12 -6 -9 0 -14 -4 -11 -10 3 -6
-3 -10 -15 -10 -12 0 -18 -5 -15 -10 3 -5 0 -10 -7 -10 -7 0 -24 -9 -38 -20
-14 -11 -35 -20 -47 -20 -13 0 -23 -6 -23 -12 0 -10 -3 -9 -9 1 -7 10 -9 11
-13 1 -2 -8 -22 -14 -45 -14 -23 -1 -45 -5 -49 -9 -4 -4 -13 -7 -21 -7 -20 0
-53 -37 -53 -61 0 -13 -4 -18 -12 -13 -8 5 -7 0 2 -11 8 -10 10 -16 4 -12 -8
4 -12 -8 -12 -40 -1 -25 -5 -49 -9 -52 -8 -6 -14 -33 -14 -63 0 -10 -4 -20
-10 -23 -5 -4 -5 -14 2 -27 7 -13 7 -18 1 -14 -6 3 -13 2 -17 -4 -3 -5 -1 -10
5 -10 6 0 8 -5 5 -11 -13 -20 -11 -71 2 -76 7 -3 13 -14 13 -25 0 -10 5 -16
10 -13 6 3 10 1 10 -5 0 -6 5 -8 10 -5 6 3 10 0 10 -7 0 -9 3 -9 10 2 9 13 10
13 10 0 0 -13 1 -13 10 0 8 13 10 12 10 -4 0 -19 0 -19 13 -1 11 14 16 15 22
5 6 -10 9 -9 16 1 7 11 9 9 9 -5 0 -19 0 -19 13 -1 11 14 16 15 22 5 6 -10 9
-9 16 1 7 11 9 9 9 -5 0 -19 0 -19 13 -1 11 14 16 15 22 5 6 -10 9 -9 16 1 7
11 9 9 9 -5 0 -19 0 -19 13 -1 11 14 16 15 22 5 6 -10 9 -9 16 1 7 11 9 9 9
-5 0 -19 0 -19 13 -1 11 14 16 15 22 5 6 -10 9 -9 16 1 7 11 9 9 9 -6 1 -19 1
-19 11 -2 8 14 14 16 25 6 11 -9 14 -8 15 2 0 8 4 5 9 -6 5 -11 9 -14 9 -7 1
7 6 10 11 7 6 -3 10 0 10 7 0 10 2 10 9 -1 6 -9 10 -10 16 -2 5 9 10 9 21 0 8
-6 14 -8 14 -4 0 4 8 1 17 -6 10 -8 14 -9 10 -2 -4 6 -3 14 3 18 5 3 10 1 10
-6 0 -10 3 -10 11 -2 9 9 18 8 36 -4 22 -15 23 -14 16 3 -6 17 -5 17 10 5 14
-11 17 -11 17 0 0 11 2 11 10 -1 5 -8 10 -11 10 -7 0 4 10 3 21 -4 13 -7 19
-7 15 -1 -3 6 -2 13 4 17 5 3 10 1 10 -6 0 -10 3 -10 11 -2 9 9 18 8 36 -4 22
-15 23 -14 16 3 -6 17 -5 17 10 5 14 -11 17 -11 17 0 0 12 2 12 9 1 12 -19 15
-19 36 -2 17 14 18 13 11 -4 -7 -19 -6 -19 13 -2 19 17 21 17 27 2 6 -15 8
-15 21 1 14 17 14 17 8 -1 -6 -19 -5 -19 13 -3 42 39 44 17 44 -454 -1 -455 0
-469 38 -469 6 0 9 -4 6 -9 -3 -5 1 -14 8 -20 10 -9 16 -9 21 -1 5 8 11 8 21
-1 11 -9 14 -9 14 1 0 9 3 10 13 1 8 -6 17 -8 21 -4 12 12 36 12 36 0 0 -8 3
-7 9 2 6 9 11 10 15 2 4 -6 13 -8 19 -4 20 12 37 12 37 0 0 -8 3 -7 9 2 6 9
11 10 15 2 4 -6 13 -8 19 -4 18 11 36 12 43 2 3 -5 11 -6 17 -2 7 4 23 9 37 9
40 3 42 3 35 14 -3 6 0 10 7 10 34 0 37 32 37 475 0 284 3 441 10 448 7 7 15
6 26 -3 13 -11 14 -10 8 6 -6 17 -5 17 10 5 14 -11 17 -11 17 0 0 12 2 12 9 0
6 -9 10 -10 16 -2 5 9 10 9 21 0 11 -9 14 -8 14 2 0 12 2 12 9 0 6 -9 10 -10
16 -2 5 9 10 9 21 0 11 -9 14 -8 14 2 0 12 2 12 9 0 6 -9 10 -10 16 -2 5 9 10
9 20 1 10 -8 14 -7 18 2 4 10 6 10 6 -1 1 -10 4 -11 15 -2 11 9 16 9 21 0 6
-8 10 -7 16 2 7 12 9 12 9 0 0 -11 3 -11 17 0 11 10 14 10 9 2 -9 -17 6 -17
23 -1 11 10 13 10 7 1 -9 -16 10 -17 20 -1 5 7 11 5 21 -7 13 -18 13 -18 14 1
0 10 3 13 6 6 2 -6 8 -10 13 -7 4 3 14 -2 21 -11 10 -13 10 -17 -2 -25 -8 -5
-9 -9 -4 -9 6 0 12 -11 13 -26 1 -17 -2 -23 -11 -18 -9 5 -9 4 1 -7 15 -17 16
-43 0 -33 -8 5 -8 3 -2 -7 13 -21 13 -159 0 -159 -8 0 -8 -2 0 -8 15 -10 15
-194 0 -185 -6 3 -5 0 2 -8 6 -7 12 -19 12 -27 0 -8 -5 -10 -12 -6 -10 6 -10
4 0 -7 6 -7 12 -19 12 -27 0 -8 -5 -10 -12 -6 -10 6 -10 4 0 -7 16 -17 16 -43
0 -33 -10 6 -9 3 0 -9 15 -18 13 -68 -3 -79 -7 -5 -7 -8 0 -8 6 0 12 -30 13
-66 3 -52 0 -64 -10 -58 -10 5 -11 4 0 -7 6 -7 12 -30 12 -52 0 -21 4 -36 9
-32 5 3 17 -5 25 -17 9 -12 16 -16 16 -9 0 9 4 10 13 4 6 -5 23 -9 37 -9 14 1
28 -3 32 -9 5 -6 8 -5 8 3 0 8 5 10 12 6 17 -11 78 -12 84 -2 3 5 14 3 25 -2
14 -8 19 -7 19 1 0 9 3 9 14 0 11 -9 16 -9 21 0 6 8 10 7 16 -2 7 -12 9 -12 9
0 0 11 3 11 15 1 8 -7 15 -8 15 -3 0 6 12 10 28 9 16 0 26 4 25 12 -2 7 0 11
5 11 20 -3 28 3 30 29 1 15 7 29 13 30 6 3 5 10 -3 20 -10 12 -10 14 0 8 13
-8 17 6 5 18 -10 10 -11 66 -1 60 10 -6 11 10 1 20 -10 10 -11 66 -1 60 4 -3
8 5 8 18 0 19 -2 20 -10 8 -8 -12 -9 -10 -7 7 2 12 6 26 10 29 12 12 8 26 -5
18 -10 -6 -10 -4 0 7 14 15 17 33 4 25 -5 -3 -9 1 -9 9 0 8 4 12 9 9 4 -3 8 2
8 11 0 9 -4 14 -9 11 -10 -7 -9 20 2 30 12 12 8 26 -5 18 -10 -6 -10 -4 0 7
13 14 17 33 4 26 -4 -3 -7 10 -8 29 0 22 2 30 7 22 7 -10 9 -9 9 2 0 9 -5 21
-11 27 -8 8 -8 13 0 17 6 4 11 12 11 17 0 6 -4 8 -8 5 -5 -3 -9 1 -9 9 0 8 4
12 9 9 4 -3 8 2 8 11 0 9 -4 14 -9 11 -10 -7 -9 20 2 30 12 12 8 26 -5 18 -10
-6 -10 -4 0 7 13 14 17 33 4 26 -4 -3 -7 10 -8 29 0 22 2 30 7 22 7 -10 9 -9
9 2 0 9 -5 21 -11 27 -8 8 -8 13 0 17 6 4 11 12 11 17 0 6 -4 8 -8 5 -5 -3 -9
1 -9 9 0 8 4 12 9 9 4 -3 8 2 8 11 0 9 -4 14 -8 11 -4 -2 -8 7 -9 22 -2 24 -1
24 7 7 8 -19 9 -19 9 3 1 13 5 20 11 17 6 -3 10 -1 10 5 0 6 5 8 10 5 6 -4 8
-12 4 -18 -3 -7 2 -3 10 7 10 13 16 15 16 7 0 -11 3 -11 17 0 11 10 14 10 9 2
-9 -17 6 -17 23 -1 11 10 13 10 7 1 -9 -16 10 -17 20 -1 5 7 11 5 21 -7 13
-18 13 -18 13 1 0 14 2 16 9 5 7 -10 10 -11 16 -1 6 10 11 9 22 -5 13 -18 13
-18 13 1 0 14 2 16 9 5 7 -10 10 -11 16 -1 6 10 11 9 22 -5 13 -18 13 -18 13
1 0 11 3 15 8 8 4 -6 16 -10 27 -8 10 2 25 -2 32 -8 11 -8 12 -7 6 8 -6 17 -5
17 10 5 14 -11 17 -11 17 0 0 9 3 10 8 4 6 -9 26 -12 35 -6 1 1 33 4 71 6 37
3 75 10 84 17 12 10 14 10 8 1 -4 -7 -2 -13 3 -13 6 0 11 5 11 11 0 7 12 10
30 7 19 -3 31 0 35 9 2 8 9 12 13 9 5 -3 18 1 28 9 10 8 32 15 47 15 16 0 26
4 22 10 -3 5 3 10 14 10 10 0 21 4 23 10 2 5 15 11 30 12 15 1 24 6 22 10 -3
4 4 8 16 8 12 0 19 4 16 9 -3 5 10 16 29 25 19 9 39 24 44 34 8 14 10 14 11 2
0 -13 2 -13 9 0 6 8 7 18 4 24 -3 5 -1 6 4 3 6 -4 18 2 28 13 10 11 22 17 26
14 5 -3 9 -1 9 5 0 5 23 32 50 60 28 28 50 55 50 61 0 6 5 8 10 5 6 -4 10 -3
9 2 -3 20 2 34 11 28 6 -3 10 0 10 8 0 7 9 23 19 34 11 12 17 24 14 27 -4 3
-1 6 6 6 7 0 10 4 7 9 -3 5 1 12 9 15 8 3 14 9 13 13 -1 4 8 28 20 52 12 25
22 51 22 58 0 7 4 13 9 13 9 0 18 25 27 75 4 17 11 33 17 37 7 4 8 8 3 8 -5 0
-4 6 0 13 5 6 9 24 8 39 0 15 3 25 7 22 5 -3 9 13 9 36 0 23 4 39 8 36 5 -3 9
1 9 9 0 8 -5 11 -10 8 -6 -3 -7 -1 -3 5 13 21 16 55 17 164 0 62 -5 117 -12
129 -6 12 -7 19 -2 16 5 -3 9 3 9 13 0 10 -3 17 -7 14 -4 -2 -7 9 -7 24 0 33
-5 53 -16 71 -6 10 -5 12 2 7 7 -4 12 -3 12 3 0 5 -5 11 -12 13 -6 2 -11 21
-11 41 0 24 -3 33 -9 25 -6 -10 -8 -10 -9 2 -1 8 -1 19 0 24 1 4 -3 14 -9 20
-5 7 -7 16 -3 19 3 4 1 7 -6 7 -7 0 -9 5 -6 10 3 5 1 10 -4 10 -6 0 -10 3 -9
8 3 14 -14 62 -23 62 -5 0 -9 9 -9 21 0 11 -4 17 -10 14 -6 -4 -10 5 -10 20 0
15 -4 24 -10 20 -5 -3 -10 3 -10 15 0 12 -4 18 -10 15 -5 -3 -10 3 -10 14 0
12 -4 21 -10 21 -5 0 -10 7 -10 16 0 8 -4 13 -8 10 -4 -2 -14 9 -21 25 -7 16
-17 27 -22 23 -5 -3 -9 0 -9 5 0 16 -32 51 -42 45 -4 -3 -5 3 -1 12 4 10 2 15
-4 11 -11 -7 -45 28 -36 37 4 3 -4 6 -16 6 -12 0 -19 4 -16 10 3 6 0 10 -8 10
-8 0 -18 7 -21 16 -3 8 -11 12 -17 8 -8 -4 -9 -3 -5 4 4 7 3 12 -2 12 -6 0 -8
9 -5 20 3 11 9 20 14 20 5 0 9 7 9 16 0 8 5 12 10 9 6 -4 10 -3 9 2 -5 26 2
42 16 37 8 -4 15 -1 15 5 0 6 -6 11 -12 11 -9 1 -8 5 3 13 19 15 53 80 36 70
-7 -3 -3 3 7 15 11 12 16 22 11 22 -4 0 -2 6 4 13 6 8 8 17 4 20 -3 4 -1 7 6
7 8 0 11 6 7 16 -4 10 -2 13 6 8 8 -5 9 0 5 15 -3 14 0 24 9 28 11 4 12 9 3
19 -8 10 -8 14 0 14 6 0 11 11 11 24 0 14 5 28 10 31 8 5 8 11 1 19 -7 8 -7
16 -1 22 5 5 10 39 11 76 1 37 5 65 9 63 4 -2 7 2 7 10 0 8 -4 12 -9 9 -5 -4
-4 3 3 14 11 17 10 24 -2 38 -8 10 -9 15 -3 11 7 -4 12 2 12 18 0 14 -4 23 -8
20 -3 -2 -7 2 -7 10 0 8 4 12 9 9 4 -3 8 0 8 5 0 6 -5 11 -11 11 -5 0 -7 4 -4
10 11 18 14 50 4 55 -5 4 -9 19 -9 36 0 16 -4 29 -10 29 -5 0 -10 5 -10 11 0
5 5 7 10 4 6 -3 10 -1 10 4 0 6 -4 11 -8 11 -4 0 -9 14 -10 32 -2 18 -8 35
-13 39 -8 4 -7 8 2 12 10 4 10 6 2 6 -7 1 -13 14 -13 30 0 16 -5 31 -10 33 -6
2 -12 13 -13 26 0 12 -5 22 -9 22 -4 0 -8 5 -8 11 0 19 -71 159 -81 159 -5 0
-9 7 -9 15 0 9 -9 25 -20 37 -11 12 -20 31 -21 42 0 21 -1 21 -9 1 -7 -17 -9
-17 -9 -3 -1 16 -21 45 -58 83 -7 7 -9 16 -5 20 4 4 2 6 -3 5 -20 -4 -36 0
-31 8 3 5 -6 16 -19 26 -14 10 -22 22 -20 27 3 4 -4 6 -15 4 -11 -2 -20 1 -20
6 0 15 -26 39 -34 32 -3 -4 -6 0 -6 7 0 7 -3 11 -6 7 -3 -3 -17 5 -31 19 -14
14 -38 28 -55 31 -21 4 -26 8 -16 14 9 6 7 9 -9 9 -13 0 -23 3 -23 8 0 8 -43
28 -82 38 -16 3 -28 10 -28 14 0 5 -8 7 -17 5 -10 -1 -24 2 -30 8 -7 5 -13 6
-13 2 0 -4 -6 -3 -12 2 -20 15 -50 24 -43 13 10 -16 -11 -12 -25 5 -9 11 -17
12 -31 4 -12 -6 -19 -6 -19 0 0 5 -12 8 -26 5 -16 -3 -23 -1 -19 6 4 7 -2 7
-19 0 -20 -7 -27 -6 -35 8 -6 10 -11 12 -11 5 0 -8 -15 -13 -41 -13 -24 0 -38
4 -34 10 11 17 -7 11 -21 -7 -9 -12 -13 -13 -14 -5 0 10 -5 10 -21 1 -17 -8
-20 -8 -14 1 5 9 1 10 -14 5 -18 -5 -21 -2 -21 25 0 17 -4 29 -9 26 -10 -7 -9
20 2 30 12 12 8 26 -5 18 -10 -6 -10 -4 0 7 13 14 17 33 4 25 -4 -2 -8 9 -9
26 0 21 2 26 8 17 6 -10 9 -8 9 9 0 13 -4 21 -9 18 -10 -7 -9 20 2 30 10 10 9
26 -1 20 -5 -3 -9 1 -9 9 0 8 4 12 9 9 4 -3 8 2 8 11 0 9 -4 14 -9 11 -10 -7
-9 20 2 30 4 4 7 14 7 23 0 14 -2 14 -10 1 -6 -9 -10 -10 -10 -3 0 6 5 15 10
18 15 9 12 27 -2 19 -10 -6 -10 -4 0 7 14 15 17 33 4 25 -5 -3 -9 1 -9 9 0 8
4 12 9 9 4 -3 8 2 8 11 0 9 -4 14 -9 11 -10 -7 -9 20 2 30 12 12 8 26 -5 18
-10 -6 -10 -4 0 7 13 14 17 33 4 25 -4 -2 -8 9 -9 26 0 21 2 26 8 17 6 -10 9
-8 9 9 0 13 -4 21 -9 18 -10 -7 -9 20 2 30 10 10 9 26 -1 20 -5 -3 -9 1 -9 9
0 8 4 12 9 9 4 -3 8 2 8 11 0 9 -4 14 -9 11 -10 -7 -9 20 2 30 12 12 8 26 -5
18 -10 -6 -10 -4 0 7 13 14 17 33 4 25 -4 -2 -8 9 -9 26 0 21 2 26 8 17 6 -10
9 -8 9 9 0 13 -4 21 -8 18 -5 -3 -9 1 -9 9 0 8 3 12 7 10 18 -11 3 28 -21 56
-22 26 -36 33 -68 34 -22 1 -43 4 -47 7 -3 3 -18 3 -32 -1 -26 -7 -109 -6
-145 3 -9 2 -15 0 -11 -5 3 -5 -2 -9 -11 -9 -9 0 -14 4 -10 9 3 6 -6 6 -24 1
-16 -4 -32 -6 -35 -3 -3 3 -16 -6 -29 -21 -13 -14 -27 -23 -30 -19 -7 7 -8 -5
-9 -94 0 -33 -4 -53 -12 -53 -7 0 -7 -3 -1 -8 6 -4 12 -31 13 -61 3 -42 1 -52
-10 -46 -10 6 -11 5 0 -6 6 -7 12 -19 12 -27 0 -8 -5 -10 -12 -6 -10 6 -10 4
0 -7 6 -7 12 -19 12 -27 0 -8 -5 -10 -12 -6 -10 6 -10 4 0 -7 15 -17 16 -43 0
-33 -8 5 -8 3 -2 -7 13 -21 13 -159 0 -159 -8 0 -8 -2 0 -8 15 -10 15 -194 0
-185 -6 3 -5 0 2 -8 6 -7 12 -19 12 -27 0 -8 -5 -10 -12 -6 -10 6 -10 4 0 -7
6 -7 12 -19 12 -27 0 -8 -5 -10 -12 -6 -10 6 -9 3 0 -8 7 -9 12 -32 10 -50
l-3 -33 -188 -2 c-122 -2 -186 1 -182 7 11 17 -7 11 -21 -7 -9 -12 -13 -13
-14 -5 0 10 -5 10 -21 1 -17 -8 -20 -8 -14 1 5 9 1 10 -14 5 -19 -6 -21 -3
-21 37 0 24 -1 229 -1 455 -1 237 -5 410 -10 407 -5 -3 -9 2 -9 10 0 9 -7 16
-16 16 -8 0 -13 4 -9 9 3 5 1 12 -5 16 -5 3 -10 0 -10 -7 0 -10 -2 -10 -9 1
-5 8 -15 11 -23 8 -8 -3 -21 -1 -29 3 -7 5 -18 5 -25 -1 -8 -6 -14 -7 -18 0
-4 6 -18 6 -34 1 -16 -4 -36 -4 -45 1 -8 5 -18 6 -21 1 -4 -6 -61 -8 -61 -2 0
1 -10 3 -22 4 -13 2 -23 -2 -23 -7z m435 -1667 c3 6 11 7 18 3 16 -10 127 -11
121 -1 -3 4 6 4 19 -1 13 -5 30 -5 37 -1 8 5 19 5 26 -1 8 -7 14 -6 19 1 5 8
10 8 20 0 10 -8 15 -8 20 0 5 8 10 8 20 0 9 -8 15 -8 20 0 3 6 11 7 18 3 16
-10 127 -11 121 -1 -3 4 6 4 19 -1 13 -5 30 -5 37 -1 8 5 19 5 26 -1 8 -7 14
-6 19 1 3 6 12 7 18 3 17 -11 59 -11 81 0 12 6 16 6 12 -1 -4 -7 4 -10 21 -8
19 2 30 -2 35 -13 6 -14 7 -14 7 2 1 14 5 16 20 7 43 -22 72 -31 65 -17 -6 9
-5 9 8 0 8 -7 19 -9 23 -5 5 4 5 1 1 -5 -5 -9 1 -13 19 -13 15 0 24 -4 20 -10
-3 -5 3 -10 14 -10 12 0 21 -4 21 -10 0 -5 6 -10 14 -10 8 0 17 -7 20 -16 4
-9 9 -14 12 -11 8 8 53 -36 47 -45 -2 -5 2 -8 10 -8 7 0 20 -12 28 -27 8 -16
22 -37 32 -47 9 -11 17 -28 17 -38 0 -10 5 -18 10 -18 6 0 10 -14 10 -31 0
-18 4 -28 10 -24 7 4 9 -3 6 -18 -2 -14 2 -37 9 -51 8 -15 10 -24 5 -21 -6 4
-10 -1 -10 -9 0 -9 6 -16 13 -17 10 0 10 -2 0 -6 -7 -2 -13 -9 -13 -14 0 -6 4
-8 8 -5 5 3 9 -1 9 -9 0 -8 -3 -12 -7 -10 -4 2 -8 -21 -9 -53 -1 -31 -6 -58
-11 -60 -6 -2 -10 -17 -10 -33 0 -18 -4 -28 -10 -24 -5 3 -10 0 -10 -8 0 -23
-31 -78 -47 -84 -12 -5 -12 -7 -1 -14 9 -6 9 -9 1 -9 -15 0 -63 -47 -55 -54 5
-6 -14 -10 -30 -7 -5 0 -7 -5 -5 -12 1 -6 -6 -11 -15 -11 -10 1 -16 -1 -14 -5
5 -11 -30 -38 -47 -35 -10 1 -17 -5 -17 -14 0 -8 -3 -12 -7 -9 -3 4 -17 0 -31
-9 -13 -9 -21 -11 -18 -5 5 7 1 9 -8 5 -9 -3 -16 -11 -16 -18 0 -6 -5 -4 -10
4 -6 9 -10 11 -10 3 0 -7 -7 -10 -15 -7 -8 4 -15 2 -15 -3 0 -5 -7 -10 -15
-10 -8 0 -12 4 -9 9 3 4 0 8 -5 8 -6 0 -11 -4 -11 -8 0 -5 -16 -9 -35 -9 -22
0 -32 4 -28 11 5 8 2 7 -8 0 -18 -14 -50 -14 -68 0 -10 8 -13 8 -8 0 8 -14
-155 -14 -165 1 -5 7 -8 7 -8 -1 0 -6 -14 -11 -30 -12 -20 0 -28 3 -24 10 5 7
2 8 -7 2 -23 -14 -51 -15 -67 -2 -11 9 -13 9 -9 1 5 -8 -7 -11 -43 -10 -28 0
-50 5 -50 11 0 8 -3 7 -8 0 -9 -14 -43 -14 -61 0 -11 8 -13 8 -8 0 7 -12 -126
-14 -138 -3 -5 5 -9 662 -5 941 0 38 22 54 47 36 6 -5 14 -5 18 2z m8 -1435
c5 11 12 13 31 6 13 -6 27 -7 30 -4 3 3 11 2 18 -4 7 -5 19 -8 26 -7 6 1 17 2
23 3 5 0 7 7 4 14 -4 6 0 4 8 -6 13 -15 15 -15 20 -2 5 11 12 13 31 6 13 -6
27 -7 30 -4 3 3 11 2 18 -4 7 -5 19 -8 26 -7 6 1 17 2 23 3 5 0 7 7 4 14 -4 6
0 4 8 -6 13 -15 15 -15 20 -2 5 11 12 13 31 6 13 -6 27 -7 30 -4 3 3 11 2 18
-4 7 -5 19 -8 26 -7 6 1 17 2 23 3 5 0 7 7 4 14 -4 6 0 4 8 -6 13 -15 15 -15
20 -2 5 11 12 13 31 6 13 -6 27 -7 30 -4 3 3 12 0 20 -6 11 -9 16 -9 22 0 5 8
3 9 -6 4 -9 -5 -11 -4 -6 3 4 7 15 8 29 3 12 -4 50 -7 85 -6 40 2 62 -1 62 -9
0 -6 4 -5 9 3 11 17 49 22 58 8 4 -6 1 -7 -7 -2 -9 5 -11 4 -6 -4 5 -8 12 -9
19 -2 13 10 107 10 107 -1 0 -8 34 -3 52 8 7 5 8 3 3 -6 -6 -10 -3 -12 13 -8
13 4 23 0 26 -9 5 -13 9 -13 23 -2 14 12 16 12 8 0 -6 -11 -4 -13 8 -8 10 3
17 2 17 -3 0 -5 7 -6 17 -3 11 4 14 3 9 -5 -5 -8 0 -12 14 -12 12 0 18 -4 15
-10 -3 -5 3 -10 14 -10 12 0 21 -4 21 -10 0 -5 10 -10 22 -10 12 0 19 -3 15
-6 -8 -8 18 -34 33 -34 6 0 8 -4 5 -10 -3 -5 1 -10 10 -10 9 0 14 -4 11 -9 -3
-5 1 -12 10 -15 9 -4 14 -13 10 -21 -3 -9 0 -15 9 -15 8 0 15 -7 15 -16 0 -8
5 -12 10 -9 10 6 14 -15 11 -44 -2 -7 2 -10 8 -6 6 3 12 1 12 -4 3 -21 4 -26
13 -40 7 -10 5 -12 -5 -6 -11 6 -12 5 -1 -6 6 -7 12 -27 12 -43 0 -22 3 -27 9
-17 6 9 8 4 7 -16 -2 -16 -6 -36 -11 -43 -5 -8 -4 -11 2 -7 6 4 13 -5 15 -23
2 -16 1 -27 -3 -25 -11 8 -20 -27 -10 -39 6 -7 6 -17 1 -26 -6 -8 -10 -25 -10
-38 0 -16 -4 -21 -12 -16 -8 5 -7 0 2 -11 9 -11 10 -16 3 -11 -9 5 -13 0 -13
-13 0 -12 -4 -21 -10 -21 -5 0 -10 -12 -10 -27 0 -22 -2 -25 -10 -13 -8 12
-10 11 -10 -7 0 -13 -4 -23 -10 -23 -5 0 -10 -6 -10 -14 0 -8 -7 -17 -16 -20
-8 -3 -12 -10 -9 -16 3 -5 0 -10 -7 -10 -7 0 -19 -9 -26 -20 -7 -11 -20 -20
-30 -20 -14 0 -15 -2 -2 -10 13 -8 12 -10 -5 -11 -11 -1 -23 -1 -27 0 -5 0 -7
-2 -5 -7 1 -4 -2 -8 -6 -9 -4 -1 -15 -9 -23 -18 -9 -8 -20 -13 -25 -10 -5 4
-9 1 -9 -5 0 -6 -4 -8 -10 -5 -5 3 -10 2 -10 -4 0 -5 -9 -8 -20 -6 -11 2 -18
0 -15 -4 6 -12 -12 -17 -53 -17 -24 1 -31 -3 -27 -13 4 -11 2 -11 -9 -2 -7 6
-22 8 -31 4 -14 -5 -16 -3 -11 8 4 8 1 6 -6 -3 -11 -15 -13 -15 -25 0 -12 15
-12 15 -6 -3 6 -18 5 -18 -10 -6 -13 10 -17 10 -17 1 0 -10 -3 -10 -15 0 -12
10 -15 10 -16 -1 0 -10 -2 -11 -6 -2 -3 10 -10 10 -25 2 -15 -8 -19 -8 -14 0
4 6 2 11 -3 11 -6 0 -11 -4 -11 -8 0 -4 -9 -8 -20 -8 -11 0 -19 5 -16 11 2 7
-2 12 -10 12 -7 0 -11 -4 -8 -9 3 -4 0 -9 -5 -9 -6 -1 -17 -2 -23 -3 -7 -1
-21 5 -31 13 -16 14 -17 13 -11 -5 7 -17 6 -17 -9 -5 -13 10 -17 10 -17 1 0
-10 -3 -10 -15 0 -12 10 -15 10 -16 -1 0 -10 -2 -11 -6 -2 -3 10 -10 10 -25 2
-15 -8 -19 -8 -14 0 4 6 2 11 -3 11 -6 0 -11 -4 -11 -8 0 -4 -9 -8 -20 -8 -11
0 -19 5 -16 11 2 7 -2 12 -10 12 -7 0 -11 -4 -8 -9 3 -4 0 -9 -5 -9 -6 -1 -17
-2 -23 -3 -7 -1 -21 5 -31 13 -16 14 -17 13 -11 -5 7 -17 6 -17 -9 -5 -13 10
-17 10 -17 1 0 -10 -3 -10 -15 0 -12 10 -15 10 -16 -1 0 -10 -2 -11 -6 -2 -3
10 -10 10 -25 2 -15 -8 -19 -8 -14 0 4 6 2 11 -3 11 -6 0 -11 -5 -11 -11 0 -8
-6 -7 -17 2 -15 12 -16 12 -8 -1 8 -13 6 -13 -8 -1 -10 8 -23 10 -34 5 -26
-11 -46 -12 -60 -1 -8 6 -13 6 -13 0 0 -10 -37 -9 -63 2 -9 4 -23 2 -30 -3
-14 -12 -35 -11 -54 1 -7 5 -13 4 -13 -2 0 -6 -7 -8 -15 -5 -8 4 -12 11 -9 18
3 6 -2 2 -10 -8 -15 -19 -16 -18 -16 17 -1 20 -1 228 -1 462 0 234 0 444 1
467 0 31 3 39 11 31 14 -14 41 -5 33 11 -3 6 1 3 9 -7 13 -15 15 -15 20 -2z
m111 7 c3 -5 -1 -9 -9 -9 -8 0 -12 4 -9 9 3 4 7 8 9 8 2 0 6 -4 9 -8z m160 0
c3 -5 -1 -9 -9 -9 -8 0 -12 4 -9 9 3 4 7 8 9 8 2 0 6 -4 9 -8z m160 0 c3 -5
-1 -9 -9 -9 -8 0 -12 4 -9 9 3 4 7 8 9 8 2 0 6 -4 9 -8z"/>
<path d="M4281 6344 c0 -11 3 -14 6 -6 3 7 2 16 -1 19 -3 4 -6 -2 -5 -13z"/>
<path d="M4281 1864 c0 -11 3 -14 6 -6 3 7 2 16 -1 19 -3 4 -6 -2 -5 -13z"/>
</g>
</svg>
